<?xml version="1.0" encoding="UTF-8" standalone="no"?><svg xmlns="http://www.w3.org/2000/svg" xmlns:xlink="http://www.w3.org/1999/xlink" contentScriptType="application/ecmascript" contentStyleType="text/css" height="398px" preserveAspectRatio="none" style="width:580px;height:398px;background:#FFFFFF;" version="1.1" viewBox="0 0 580 398" width="580px" zoomAndPan="magnify"><defs><filter height="300%" id="f138ct5p67tnyu" width="300%" x="-1" y="-1"><feGaussianBlur result="blurOut" stdDeviation="2.0"/><feColorMatrix in="blurOut" result="blurOut2" type="matrix" values="0 0 0 0 0 0 0 0 0 0 0 0 0 0 0 0 0 0 .4 0"/><feOffset dx="4.0" dy="4.0" in="blurOut2" result="blurOut3"/><feBlend in="SourceGraphic" in2="blurOut3" mode="normal"/></filter></defs><g><rect fill="#FFFFFF" filter="url(#f138ct5p67tnyu)" height="175.8633" style="stroke:#A80036;stroke-width:1.0;" width="10" x="277.5" y="119.7988"/><rect fill="#FFFFFF" filter="url(#f138ct5p67tnyu)" height="117.2422" style="stroke:#A80036;stroke-width:1.0;" width="10" x="426.5" y="149.1094"/><rect fill="#FFFFFF" filter="url(#f138ct5p67tnyu)" height="29.3105" style="stroke:#A80036;stroke-width:1.0;" width="10" x="524.5" y="237.041"/><line style="stroke:#A80036;stroke-width:1.0;stroke-dasharray:5.0,5.0;" x1="23" x2="23" y1="88.4883" y2="313.6621"/><line style="stroke:#A80036;stroke-width:1.0;stroke-dasharray:5.0,5.0;" x1="282" x2="282" y1="88.4883" y2="313.6621"/><line style="stroke:#A80036;stroke-width:1.0;stroke-dasharray:5.0,5.0;" x1="431" x2="431" y1="88.4883" y2="313.6621"/><line style="stroke:#A80036;stroke-width:1.0;stroke-dasharray:5.0,5.0;" x1="529" x2="529" y1="88.4883" y2="313.6621"/><text fill="#000000" font-family="sans-serif" font-size="14" lengthAdjust="spacing" textLength="31" x="5" y="85.5352">User</text><ellipse cx="23.5" cy="15" fill="#FEFECE" filter="url(#f138ct5p67tnyu)" rx="8" ry="8" style="stroke:#A80036;stroke-width:2.0;"/><path d="M23.5,23 L23.5,50 M10.5,31 L36.5,31 M23.5,50 L10.5,65 M23.5,50 L36.5,65 " fill="none" filter="url(#f138ct5p67tnyu)" style="stroke:#A80036;stroke-width:2.0;"/><text fill="#000000" font-family="sans-serif" font-size="14" lengthAdjust="spacing" textLength="31" x="5" y="326.1973">User</text><ellipse cx="23.5" cy="339.1504" fill="#FEFECE" filter="url(#f138ct5p67tnyu)" rx="8" ry="8" style="stroke:#A80036;stroke-width:2.0;"/><path d="M23.5,347.1504 L23.5,374.1504 M10.5,355.1504 L36.5,355.1504 M23.5,374.1504 L10.5,389.1504 M23.5,374.1504 L36.5,389.1504 " fill="none" filter="url(#f138ct5p67tnyu)" style="stroke:#A80036;stroke-width:2.0;"/><rect fill="#FEFECE" filter="url(#f138ct5p67tnyu)" height="30.4883" style="stroke:#A80036;stroke-width:1.5;" width="69" x="246" y="53"/><text fill="#000000" font-family="sans-serif" font-size="14" lengthAdjust="spacing" textLength="55" x="253" y="73.5352">TaskList</text><rect fill="#FEFECE" filter="url(#f138ct5p67tnyu)" height="30.4883" style="stroke:#A80036;stroke-width:1.5;" width="69" x="246" y="312.6621"/><text fill="#000000" font-family="sans-serif" font-size="14" lengthAdjust="spacing" textLength="55" x="253" y="333.1973">TaskList</text><rect fill="#FEFECE" filter="url(#f138ct5p67tnyu)" height="30.4883" style="stroke:#A80036;stroke-width:1.5;" width="89" x="385" y="53"/><text fill="#000000" font-family="sans-serif" font-size="14" lengthAdjust="spacing" textLength="75" x="392" y="73.5352">DeleteView</text><rect fill="#FEFECE" filter="url(#f138ct5p67tnyu)" height="30.4883" style="stroke:#A80036;stroke-width:1.5;" width="89" x="385" y="312.6621"/><text fill="#000000" font-family="sans-serif" font-size="14" lengthAdjust="spacing" textLength="75" x="392" y="333.1973">DeleteView</text><rect fill="#FEFECE" filter="url(#f138ct5p67tnyu)" height="30.4883" style="stroke:#A80036;stroke-width:1.5;" width="77" x="489" y="53"/><text fill="#000000" font-family="sans-serif" font-size="14" lengthAdjust="spacing" textLength="63" x="496" y="73.5352">Database</text><rect fill="#FEFECE" filter="url(#f138ct5p67tnyu)" height="30.4883" style="stroke:#A80036;stroke-width:1.5;" width="77" x="489" y="312.6621"/><text fill="#000000" font-family="sans-serif" font-size="14" lengthAdjust="spacing" textLength="63" x="496" y="333.1973">Database</text><rect fill="#FFFFFF" filter="url(#f138ct5p67tnyu)" height="175.8633" style="stroke:#A80036;stroke-width:1.0;" width="10" x="277.5" y="119.7988"/><rect fill="#FFFFFF" filter="url(#f138ct5p67tnyu)" height="117.2422" style="stroke:#A80036;stroke-width:1.0;" width="10" x="426.5" y="149.1094"/><rect fill="#FFFFFF" filter="url(#f138ct5p67tnyu)" height="29.3105" style="stroke:#A80036;stroke-width:1.0;" width="10" x="524.5" y="237.041"/><polygon fill="#A80036" points="265.5,115.7988,275.5,119.7988,265.5,123.7988,269.5,119.7988" style="stroke:#A80036;stroke-width:1.0;"/><line style="stroke:#A80036;stroke-width:1.0;" x1="23.5" x2="271.5" y1="119.7988" y2="119.7988"/><text fill="#000000" font-family="sans-serif" font-size="13" lengthAdjust="spacing" textLength="235" x="30.5" y="115.0566">click cross mark behind the task title</text><polygon fill="#A80036" points="414.5,145.1094,424.5,149.1094,414.5,153.1094,418.5,149.1094" style="stroke:#A80036;stroke-width:1.0;"/><line style="stroke:#A80036;stroke-width:1.0;" x1="287.5" x2="420.5" y1="149.1094" y2="149.1094"/><text fill="#000000" font-family="sans-serif" font-size="13" lengthAdjust="spacing" textLength="120" x="294.5" y="144.3672">request delete task</text><polygon fill="#A80036" points="34.5,174.4199,24.5,178.4199,34.5,182.4199,30.5,178.4199" style="stroke:#A80036;stroke-width:1.0;"/><line style="stroke:#A80036;stroke-width:1.0;" x1="28.5" x2="425.5" y1="178.4199" y2="178.4199"/><text fill="#000000" font-family="sans-serif" font-size="13" lengthAdjust="spacing" textLength="174" x="40.5" y="173.6777">send confirmation message</text><polygon fill="#A80036" points="414.5,203.7305,424.5,207.7305,414.5,211.7305,418.5,207.7305" style="stroke:#A80036;stroke-width:1.0;"/><line style="stroke:#A80036;stroke-width:1.0;" x1="23.5" x2="420.5" y1="207.7305" y2="207.7305"/><text fill="#000000" font-family="sans-serif" font-size="13" lengthAdjust="spacing" textLength="49" x="30.5" y="202.9883">confirm</text><polygon fill="#A80036" points="512.5,233.041,522.5,237.041,512.5,241.041,516.5,237.041" style="stroke:#A80036;stroke-width:1.0;"/><line style="stroke:#A80036;stroke-width:1.0;" x1="436.5" x2="518.5" y1="237.041" y2="237.041"/><text fill="#000000" font-family="sans-serif" font-size="13" lengthAdjust="spacing" textLength="69" x="443.5" y="232.2988">delete task</text><polygon fill="#A80036" points="298.5,262.3516,288.5,266.3516,298.5,270.3516,294.5,266.3516" style="stroke:#A80036;stroke-width:1.0;"/><line style="stroke:#A80036;stroke-width:1.0;stroke-dasharray:2.0,2.0;" x1="292.5" x2="528.5" y1="266.3516" y2="266.3516"/><text fill="#000000" font-family="sans-serif" font-size="13" lengthAdjust="spacing" textLength="48" x="304.5" y="261.6094">redirect</text><polygon fill="#A80036" points="34.5,291.6621,24.5,295.6621,34.5,299.6621,30.5,295.6621" style="stroke:#A80036;stroke-width:1.0;"/><line style="stroke:#A80036;stroke-width:1.0;stroke-dasharray:2.0,2.0;" x1="28.5" x2="281.5" y1="295.6621" y2="295.6621"/><text fill="#000000" font-family="sans-serif" font-size="13" lengthAdjust="spacing" textLength="45" x="40.5" y="290.9199">display</text><!--MD5=[f62e808714ff9991c1778bccfaf5c5f1]
@startuml
Actor User
User -> TaskList : click cross mark behind the task title
activate TaskList
TaskList -> DeleteView : request delete task
activate DeleteView
DeleteView -> User : send confirmation message
User -> DeleteView : confirm
DeleteView -> Database : delete task
activate Database
Database - -> TaskList : redirect
deactivate Database
deactivate DeleteView
TaskList - -> User : display
deactivate TaskList
@enduml

PlantUML version 1.2022.0(Tue Jan 11 23:16:42 ICT 2022)
(GPL source distribution)
Java Runtime: OpenJDK Runtime Environment
JVM: OpenJDK 64-Bit Server VM
Default Encoding: UTF-8
Language: en
Country: TH
--></g></svg>