<?xml version="1.0" encoding="UTF-8" standalone="no"?><svg xmlns="http://www.w3.org/2000/svg" xmlns:xlink="http://www.w3.org/1999/xlink" contentScriptType="application/ecmascript" contentStyleType="text/css" height="752px" preserveAspectRatio="none" style="width:719px;height:752px;background:#FFFFFF;" version="1.1" viewBox="0 0 719 752" width="719px" zoomAndPan="magnify"><defs><filter height="300%" id="fopm42h7a713l" width="300%" x="-1" y="-1"><feGaussianBlur result="blurOut" stdDeviation="2.0"/><feColorMatrix in="blurOut" result="blurOut2" type="matrix" values="0 0 0 0 0 0 0 0 0 0 0 0 0 0 0 0 0 0 .4 0"/><feOffset dx="4.0" dy="4.0" in="blurOut2" result="blurOut3"/><feBlend in="SourceGraphic" in2="blurOut3" mode="normal"/></filter></defs><g><text fill="#000000" font-family="sans-serif" font-size="18" font-weight="bold" lengthAdjust="spacing" textLength="229" x="159.5" y="29.4023">Web Server Create client</text><text fill="#000000" font-family="sans-serif" font-size="18" lengthAdjust="spacing" textLength="161" x="394.5" y="29.4023">Seqeunce Diagram</text><rect fill="#FFFFFF" filter="url(#fopm42h7a713l)" height="29.3105" style="stroke:#A80036;stroke-width:1.0;" width="10" x="293.5" y="170.3086"/><rect fill="#FFFFFF" filter="url(#fopm42h7a713l)" height="100.9316" style="stroke:#A80036;stroke-width:1.0;" width="10" x="293.5" y="258.2402"/><rect fill="#FFFFFF" filter="url(#fopm42h7a713l)" height="29.3105" style="stroke:#A80036;stroke-width:1.0;" width="10" x="293.5" y="530.0352"/><rect fill="#FFFFFF" filter="url(#fopm42h7a713l)" height="87.9316" style="stroke:#A80036;stroke-width:1.0;" width="10" x="293.5" y="632.9219"/><rect fill="#FFFFFF" filter="url(#fopm42h7a713l)" height="29.3105" style="stroke:#A80036;stroke-width:1.0;" width="10" x="534.5" y="228.9297"/><rect fill="#FFFFFF" filter="url(#fopm42h7a713l)" height="29.3105" style="stroke:#A80036;stroke-width:1.0;" width="10" x="534.5" y="417.793"/><rect fill="#FFFFFF" filter="url(#fopm42h7a713l)" height="29.3105" style="stroke:#A80036;stroke-width:1.0;" width="10" x="534.5" y="500.7246"/><rect fill="#FFFFFF" filter="url(#fopm42h7a713l)" height="29.3105" style="stroke:#A80036;stroke-width:1.0;" width="10" x="534.5" y="603.6113"/><rect fill="#FFFFFF" filter="url(#fopm42h7a713l)" height="29.3105" style="stroke:#A80036;stroke-width:1.0;" width="10" x="644.5" y="662.2324"/><rect fill="#FFFFFF" filter="url(#fopm42h7a713l)" height="266.75" style="stroke:#000000;stroke-width:2.0;" width="695" x="10" y="462.1035"/><rect fill="#FFFFFF" height="161.5078" style="stroke:none;stroke-width:1.0;" width="695" x="10" y="567.3457"/><line style="stroke:#A80036;stroke-width:1.0;stroke-dasharray:5.0,5.0;" x1="38" x2="38" y1="123.6875" y2="745.8535"/><line style="stroke:#A80036;stroke-width:1.0;stroke-dasharray:5.0,5.0;" x1="298.5" x2="298.5" y1="123.6875" y2="745.8535"/><line style="stroke:#A80036;stroke-width:1.0;stroke-dasharray:5.0,5.0;" x1="539" x2="539" y1="123.6875" y2="745.8535"/><line style="stroke:#A80036;stroke-width:1.0;stroke-dasharray:5.0,5.0;" x1="649" x2="649" y1="123.6875" y2="745.8535"/><text fill="#000000" font-family="sans-serif" font-size="14" lengthAdjust="spacing" textLength="31" x="20" y="120.7344">User</text><ellipse cx="38.5" cy="50.1992" fill="#FEFECE" filter="url(#fopm42h7a713l)" rx="8" ry="8" style="stroke:#A80036;stroke-width:2.0;"/><path d="M38.5,58.1992 L38.5,85.1992 M25.5,66.1992 L51.5,66.1992 M38.5,85.1992 L25.5,100.1992 M38.5,85.1992 L51.5,100.1992 " fill="none" filter="url(#fopm42h7a713l)" style="stroke:#A80036;stroke-width:2.0;"/><rect fill="#FEFECE" filter="url(#fopm42h7a713l)" height="30.4883" style="stroke:#A80036;stroke-width:1.5;" width="90" x="251.5" y="88.1992"/><text fill="#000000" font-family="sans-serif" font-size="14" lengthAdjust="spacing" textLength="76" x="258.5" y="108.7344">Web Server</text><rect fill="#FEFECE" filter="url(#fopm42h7a713l)" height="30.4883" style="stroke:#A80036;stroke-width:1.5;" width="105" x="485" y="88.1992"/><text fill="#000000" font-family="sans-serif" font-size="14" lengthAdjust="spacing" textLength="91" x="492" y="108.7344">Crypto Wallet</text><rect fill="#FEFECE" filter="url(#fopm42h7a713l)" height="30.4883" style="stroke:#A80036;stroke-width:1.5;" width="87" x="604" y="88.1992"/><text fill="#000000" font-family="sans-serif" font-size="14" lengthAdjust="spacing" textLength="73" x="611" y="108.7344">Blockchain</text><rect fill="#FFFFFF" filter="url(#fopm42h7a713l)" height="29.3105" style="stroke:#A80036;stroke-width:1.0;" width="10" x="293.5" y="170.3086"/><rect fill="#FFFFFF" filter="url(#fopm42h7a713l)" height="100.9316" style="stroke:#A80036;stroke-width:1.0;" width="10" x="293.5" y="258.2402"/><rect fill="#FFFFFF" filter="url(#fopm42h7a713l)" height="29.3105" style="stroke:#A80036;stroke-width:1.0;" width="10" x="293.5" y="530.0352"/><rect fill="#FFFFFF" filter="url(#fopm42h7a713l)" height="87.9316" style="stroke:#A80036;stroke-width:1.0;" width="10" x="293.5" y="632.9219"/><rect fill="#FFFFFF" filter="url(#fopm42h7a713l)" height="29.3105" style="stroke:#A80036;stroke-width:1.0;" width="10" x="534.5" y="228.9297"/><rect fill="#FFFFFF" filter="url(#fopm42h7a713l)" height="29.3105" style="stroke:#A80036;stroke-width:1.0;" width="10" x="534.5" y="417.793"/><rect fill="#FFFFFF" filter="url(#fopm42h7a713l)" height="29.3105" style="stroke:#A80036;stroke-width:1.0;" width="10" x="534.5" y="500.7246"/><rect fill="#FFFFFF" filter="url(#fopm42h7a713l)" height="29.3105" style="stroke:#A80036;stroke-width:1.0;" width="10" x="534.5" y="603.6113"/><rect fill="#FFFFFF" filter="url(#fopm42h7a713l)" height="29.3105" style="stroke:#A80036;stroke-width:1.0;" width="10" x="644.5" y="662.2324"/><polygon fill="#A80036" points="281.5,166.3086,291.5,170.3086,281.5,174.3086,285.5,170.3086" style="stroke:#A80036;stroke-width:1.0;"/><line style="stroke:#A80036;stroke-width:1.0;stroke-dasharray:2.0,2.0;" x1="38.5" x2="287.5" y1="170.3086" y2="170.3086"/><text fill="#000000" font-family="sans-serif" font-size="13" font-weight="bold" lengthAdjust="spacing" textLength="19" x="45.5" y="157.9111">(1)</text><text fill="#000000" font-family="sans-serif" font-size="13" lengthAdjust="spacing" textLength="141" x="68.5" y="150.2559">Client manage request</text><text fill="#000000" font-family="sans-serif" font-size="13" lengthAdjust="spacing" textLength="96" x="68.5" y="165.5664">GET /developer</text><polygon fill="#A80036" points="49.5,195.6191,39.5,199.6191,49.5,203.6191,45.5,199.6191" style="stroke:#A80036;stroke-width:1.0;"/><line style="stroke:#A80036;stroke-width:1.0;stroke-dasharray:2.0,2.0;" x1="43.5" x2="297.5" y1="199.6191" y2="199.6191"/><text fill="#000000" font-family="sans-serif" font-size="13" font-weight="bold" lengthAdjust="spacing" textLength="19" x="55.5" y="194.877">(2)</text><text fill="#000000" font-family="sans-serif" font-size="13" lengthAdjust="spacing" textLength="144" x="78.5" y="194.877">Connect wallet request</text><polygon fill="#A80036" points="522.5,224.9297,532.5,228.9297,522.5,232.9297,526.5,228.9297" style="stroke:#A80036;stroke-width:1.0;"/><line style="stroke:#A80036;stroke-width:1.0;stroke-dasharray:2.0,2.0;" x1="38.5" x2="528.5" y1="228.9297" y2="228.9297"/><text fill="#000000" font-family="sans-serif" font-size="13" font-weight="bold" lengthAdjust="spacing" textLength="19" x="45.5" y="224.1875">(3)</text><text fill="#000000" font-family="sans-serif" font-size="13" lengthAdjust="spacing" textLength="236" x="68.5" y="224.1875">Client manage connect wallet request</text><polygon fill="#A80036" points="314.5,254.2402,304.5,258.2402,314.5,262.2402,310.5,258.2402" style="stroke:#A80036;stroke-width:1.0;"/><line style="stroke:#A80036;stroke-width:1.0;stroke-dasharray:2.0,2.0;" x1="308.5" x2="538.5" y1="258.2402" y2="258.2402"/><text fill="#000000" font-family="sans-serif" font-size="13" font-weight="bold" lengthAdjust="spacing" textLength="19" x="320.5" y="253.498">(4)</text><text fill="#000000" font-family="sans-serif" font-size="13" lengthAdjust="spacing" textLength="155" x="343.5" y="253.498">Wallet credential request</text><line style="stroke:#A80036;stroke-width:1.0;stroke-dasharray:2.0,2.0;" x1="303.5" x2="345.5" y1="287.5508" y2="287.5508"/><line style="stroke:#A80036;stroke-width:1.0;stroke-dasharray:2.0,2.0;" x1="345.5" x2="345.5" y1="287.5508" y2="300.5508"/><line style="stroke:#A80036;stroke-width:1.0;stroke-dasharray:2.0,2.0;" x1="304.5" x2="345.5" y1="300.5508" y2="300.5508"/><polygon fill="#A80036" points="314.5,296.5508,304.5,300.5508,314.5,304.5508,310.5,300.5508" style="stroke:#A80036;stroke-width:1.0;"/><text fill="#000000" font-family="sans-serif" font-size="13" font-weight="bold" lengthAdjust="spacing" textLength="19" x="310.5" y="282.8086">(5)</text><text fill="#000000" font-family="sans-serif" font-size="13" lengthAdjust="spacing" textLength="194" x="333.5" y="282.8086">Wallet verification and chain Id</text><polygon fill="#A80036" points="49.5,325.8613,39.5,329.8613,49.5,333.8613,45.5,329.8613" style="stroke:#A80036;stroke-width:1.0;"/><line style="stroke:#A80036;stroke-width:1.0;stroke-dasharray:2.0,2.0;" x1="43.5" x2="292.5" y1="329.8613" y2="329.8613"/><text fill="#000000" font-family="sans-serif" font-size="13" lengthAdjust="spacing" textLength="84" x="55.5" y="325.1191">Wallet denied</text><polygon fill="#A80036" points="49.5,355.1719,39.5,359.1719,49.5,363.1719,45.5,359.1719" style="stroke:#A80036;stroke-width:1.0;"/><line style="stroke:#A80036;stroke-width:1.0;stroke-dasharray:2.0,2.0;" x1="43.5" x2="297.5" y1="359.1719" y2="359.1719"/><text fill="#000000" font-family="sans-serif" font-size="13" font-weight="bold" lengthAdjust="spacing" textLength="19" x="55.5" y="354.4297">(6)</text><text fill="#000000" font-family="sans-serif" font-size="13" lengthAdjust="spacing" textLength="208" x="78.5" y="354.4297">Client wallet connected response</text><polygon fill="#A80036" points="286.5,384.4824,296.5,388.4824,286.5,392.4824,290.5,388.4824" style="stroke:#A80036;stroke-width:1.0;"/><line style="stroke:#A80036;stroke-width:1.0;stroke-dasharray:2.0,2.0;" x1="38.5" x2="292.5" y1="388.4824" y2="388.4824"/><text fill="#000000" font-family="sans-serif" font-size="13" font-weight="bold" lengthAdjust="spacing" textLength="19" x="45.5" y="383.7402">(7)</text><text fill="#000000" font-family="sans-serif" font-size="13" lengthAdjust="spacing" textLength="101" x="68.5" y="383.7402">Client sent Data</text><polygon fill="#A80036" points="522.5,413.793,532.5,417.793,522.5,421.793,526.5,417.793" style="stroke:#A80036;stroke-width:1.0;"/><line style="stroke:#A80036;stroke-width:1.0;stroke-dasharray:2.0,2.0;" x1="298.5" x2="528.5" y1="417.793" y2="417.793"/><text fill="#000000" font-family="sans-serif" font-size="13" font-weight="bold" lengthAdjust="spacing" textLength="19" x="305.5" y="413.0508">(8)</text><text fill="#000000" font-family="sans-serif" font-size="13" lengthAdjust="spacing" textLength="133" x="328.5" y="413.0508">Generate Transaction</text><polygon fill="#A80036" points="49.5,443.1035,39.5,447.1035,49.5,451.1035,45.5,447.1035" style="stroke:#A80036;stroke-width:1.0;"/><line style="stroke:#A80036;stroke-width:1.0;stroke-dasharray:2.0,2.0;" x1="43.5" x2="538.5" y1="447.1035" y2="447.1035"/><text fill="#000000" font-family="sans-serif" font-size="13" font-weight="bold" lengthAdjust="spacing" textLength="19" x="55.5" y="442.3613">(9)</text><text fill="#000000" font-family="sans-serif" font-size="13" lengthAdjust="spacing" textLength="393" x="78.5" y="442.3613">Response transaction signature and wait for user confirmation</text><path d="M10,462.1035 L72,462.1035 L72,469.1035 L62,479.1035 L10,479.1035 L10,462.1035 " fill="#EEEEEE" style="stroke:#000000;stroke-width:1.0;"/><rect fill="none" height="266.75" style="stroke:#000000;stroke-width:2.0;" width="695" x="10" y="462.1035"/><text fill="#000000" font-family="sans-serif" font-size="13" font-weight="bold" lengthAdjust="spacing" textLength="17" x="25" y="475.6719">alt</text><text fill="#000000" font-family="sans-serif" font-size="11" font-weight="bold" lengthAdjust="spacing" textLength="235" x="87" y="474.7383">[User denied transaction signature (false)]</text><polygon fill="#A80036" points="522.5,496.7246,532.5,500.7246,522.5,504.7246,526.5,500.7246" style="stroke:#A80036;stroke-width:1.0;"/><line style="stroke:#A80036;stroke-width:1.0;stroke-dasharray:2.0,2.0;" x1="38.5" x2="528.5" y1="500.7246" y2="500.7246"/><text fill="#000000" font-family="sans-serif" font-size="13" lengthAdjust="spacing" textLength="158" x="45.5" y="495.9824">Client denied transaction</text><polygon fill="#A80036" points="314.5,526.0352,304.5,530.0352,314.5,534.0352,310.5,530.0352" style="stroke:#A80036;stroke-width:1.0;"/><line style="stroke:#A80036;stroke-width:1.0;stroke-dasharray:2.0,2.0;" x1="308.5" x2="538.5" y1="530.0352" y2="530.0352"/><text fill="#000000" font-family="sans-serif" font-size="13" lengthAdjust="spacing" textLength="120" x="320.5" y="525.293">Transaction denied</text><polygon fill="#A80036" points="49.5,555.3457,39.5,559.3457,49.5,563.3457,45.5,559.3457" style="stroke:#A80036;stroke-width:1.0;"/><line style="stroke:#A80036;stroke-width:1.0;stroke-dasharray:2.0,2.0;" x1="43.5" x2="297.5" y1="559.3457" y2="559.3457"/><text fill="#000000" font-family="sans-serif" font-size="13" lengthAdjust="spacing" textLength="75" x="55.5" y="554.6035">Data denied</text><line style="stroke:#000000;stroke-width:1.0;stroke-dasharray:2.0,2.0;" x1="10" x2="705" y1="568.3457" y2="568.3457"/><text fill="#000000" font-family="sans-serif" font-size="11" font-weight="bold" lengthAdjust="spacing" textLength="251" x="15" y="578.9805">[User confirmed transaction signature (true)]</text><polygon fill="#A80036" points="522.5,599.6113,532.5,603.6113,522.5,607.6113,526.5,603.6113" style="stroke:#A80036;stroke-width:1.0;"/><line style="stroke:#A80036;stroke-width:1.0;stroke-dasharray:2.0,2.0;" x1="38.5" x2="528.5" y1="603.6113" y2="603.6113"/><text fill="#000000" font-family="sans-serif" font-size="13" font-weight="bold" lengthAdjust="spacing" textLength="28" x="45.5" y="598.8691">(10)</text><text fill="#000000" font-family="sans-serif" font-size="13" lengthAdjust="spacing" textLength="180" x="77.5" y="598.8691">Client confirmed transaction</text><polygon fill="#A80036" points="314.5,628.9219,304.5,632.9219,314.5,636.9219,310.5,632.9219" style="stroke:#A80036;stroke-width:1.0;"/><line style="stroke:#A80036;stroke-width:1.0;stroke-dasharray:2.0,2.0;" x1="308.5" x2="538.5" y1="632.9219" y2="632.9219"/><text fill="#000000" font-family="sans-serif" font-size="13" font-weight="bold" lengthAdjust="spacing" textLength="28" x="320.5" y="628.1797">(11)</text><text fill="#000000" font-family="sans-serif" font-size="13" lengthAdjust="spacing" textLength="141" x="352.5" y="628.1797">Confirmed transaction</text><polygon fill="#A80036" points="632.5,658.2324,642.5,662.2324,632.5,666.2324,636.5,662.2324" style="stroke:#A80036;stroke-width:1.0;"/><line style="stroke:#A80036;stroke-width:1.0;stroke-dasharray:2.0,2.0;" x1="303.5" x2="638.5" y1="662.2324" y2="662.2324"/><text fill="#000000" font-family="sans-serif" font-size="13" font-weight="bold" lengthAdjust="spacing" textLength="28" x="310.5" y="657.4902">(12)</text><text fill="#000000" font-family="sans-serif" font-size="13" lengthAdjust="spacing" textLength="127" x="342.5" y="657.4902">Send data encrypted</text><polygon fill="#A80036" points="314.5,687.543,304.5,691.543,314.5,695.543,310.5,691.543" style="stroke:#A80036;stroke-width:1.0;"/><line style="stroke:#A80036;stroke-width:1.0;stroke-dasharray:2.0,2.0;" x1="308.5" x2="648.5" y1="691.543" y2="691.543"/><text fill="#000000" font-family="sans-serif" font-size="13" font-weight="bold" lengthAdjust="spacing" textLength="28" x="320.5" y="686.8008">(13)</text><text fill="#000000" font-family="sans-serif" font-size="13" lengthAdjust="spacing" textLength="130" x="352.5" y="686.8008">Successful save data</text><polygon fill="#A80036" points="49.5,716.8535,39.5,720.8535,49.5,724.8535,45.5,720.8535" style="stroke:#A80036;stroke-width:1.0;"/><line style="stroke:#A80036;stroke-width:1.0;stroke-dasharray:2.0,2.0;" x1="43.5" x2="297.5" y1="720.8535" y2="720.8535"/><text fill="#000000" font-family="sans-serif" font-size="13" font-weight="bold" lengthAdjust="spacing" textLength="28" x="55.5" y="716.1113">(14)</text><text fill="#000000" font-family="sans-serif" font-size="13" lengthAdjust="spacing" textLength="194" x="87.5" y="716.1113">Response data save successful</text><!--MD5=[728425d7790a6afc4644ae17ce2a1cb1]
@startuml Web Server Create client
title **Web Server Create client** Seqeunce Diagram
hide footbox
actor User
autonumber "<b>(0)"
"User" - -> "Web Server" ++: Client manage request\nGET /developer
"Web Server" - -> "User" - -: Connect wallet request
"User" - -> "Crypto Wallet" ++: Client manage connect wallet request
"Crypto Wallet" - -> "Web Server" - -++: Wallet credential request
"Web Server" - -> "Web Server" : Wallet verification and chain Id
autonumber stop
"Web Server" - -> "User" : Wallet denied
autonumber resume
"Web Server" - -> "User" - -: Client wallet connected response
"User" - -> "Web Server" : Client sent Data
"Web Server" - -> "Crypto Wallet" ++: Generate Transaction
"Crypto Wallet" - -> "User" - -: Response transaction signature and wait for user confirmation
alt User denied transaction signature (false)
    autonumber stop
    "User" - -> "Crypto Wallet" ++: Client denied transaction
    "Crypto Wallet" - -> "Web Server" - -++: Transaction denied
    "Web Server" - -> "User" - -: Data denied
else User confirmed transaction signature (true)
    autonumber resume
    "User" - -> "Crypto Wallet" ++: Client confirmed transaction
    "Crypto Wallet" - -> "Web Server" - -++: Confirmed transaction
    "Web Server" - -> "Blockchain" ++: Send data encrypted
    "Blockchain" - -> "Web Server" - -: Successful save data
    "Web Server" - -> "User" - -: Response data save successful
end
@enduml

PlantUML version 1.2022.0(Tue Jan 11 23:16:42 ICT 2022)
(GPL source distribution)
Java Runtime: OpenJDK Runtime Environment
JVM: OpenJDK 64-Bit Server VM
Default Encoding: UTF-8
Language: en
Country: TH
--></g></svg>