<?xml version="1.0" encoding="UTF-8" standalone="no"?><svg xmlns="http://www.w3.org/2000/svg" xmlns:xlink="http://www.w3.org/1999/xlink" contentScriptType="application/ecmascript" contentStyleType="text/css" height="444px" preserveAspectRatio="none" style="width:473px;height:444px;background:#FFFFFF;" version="1.1" viewBox="0 0 473 444" width="473px" zoomAndPan="magnify"><defs><filter height="300%" id="fb2ea20npgzp8" width="300%" x="-1" y="-1"><feGaussianBlur result="blurOut" stdDeviation="2.0"/><feColorMatrix in="blurOut" result="blurOut2" type="matrix" values="0 0 0 0 0 0 0 0 0 0 0 0 0 0 0 0 0 0 .4 0"/><feOffset dx="4.0" dy="4.0" in="blurOut2" result="blurOut3"/><feBlend in="SourceGraphic" in2="blurOut3" mode="normal"/></filter></defs><g><rect fill="#FFFFFF" filter="url(#fb2ea20npgzp8)" height="192.8184" style="stroke:#A80036;stroke-width:1.0;" width="10" x="205.5" y="119.7988"/><rect fill="#FFFFFF" filter="url(#fb2ea20npgzp8)" height="192.8184" style="stroke:#A80036;stroke-width:1.0;" width="10" x="403.5" y="149.1094"/><rect fill="#FFFFFF" filter="url(#fb2ea20npgzp8)" height="120.1973" style="stroke:#000000;stroke-width:2.0;" width="449" x="10" y="164.1094"/><rect fill="#FFFFFF" height="73.5762" style="stroke:none;stroke-width:1.0;" width="449" x="10" y="210.7305"/><line style="stroke:#A80036;stroke-width:1.0;stroke-dasharray:5.0,5.0;" x1="38" x2="38" y1="88.4883" y2="359.9277"/><line style="stroke:#A80036;stroke-width:1.0;stroke-dasharray:5.0,5.0;" x1="210.5" x2="210.5" y1="88.4883" y2="359.9277"/><line style="stroke:#A80036;stroke-width:1.0;stroke-dasharray:5.0,5.0;" x1="408" x2="408" y1="88.4883" y2="359.9277"/><text fill="#000000" font-family="sans-serif" font-size="14" lengthAdjust="spacing" textLength="31" x="20" y="85.5352">User</text><ellipse cx="38.5" cy="15" fill="#FEFECE" filter="url(#fb2ea20npgzp8)" rx="8" ry="8" style="stroke:#A80036;stroke-width:2.0;"/><path d="M38.5,23 L38.5,50 M25.5,31 L51.5,31 M38.5,50 L25.5,65 M38.5,50 L51.5,65 " fill="none" filter="url(#fb2ea20npgzp8)" style="stroke:#A80036;stroke-width:2.0;"/><text fill="#000000" font-family="sans-serif" font-size="14" lengthAdjust="spacing" textLength="31" x="20" y="372.4629">User</text><ellipse cx="38.5" cy="385.416" fill="#FEFECE" filter="url(#fb2ea20npgzp8)" rx="8" ry="8" style="stroke:#A80036;stroke-width:2.0;"/><path d="M38.5,393.416 L38.5,420.416 M25.5,401.416 L51.5,401.416 M38.5,420.416 L25.5,435.416 M38.5,420.416 L51.5,435.416 " fill="none" filter="url(#fb2ea20npgzp8)" style="stroke:#A80036;stroke-width:2.0;"/><rect fill="#FEFECE" filter="url(#fb2ea20npgzp8)" height="30.4883" style="stroke:#A80036;stroke-width:1.5;" width="98" x="159.5" y="53"/><text fill="#000000" font-family="sans-serif" font-size="14" lengthAdjust="spacing" textLength="84" x="166.5" y="73.5352">ShareCreate</text><rect fill="#FEFECE" filter="url(#fb2ea20npgzp8)" height="30.4883" style="stroke:#A80036;stroke-width:1.5;" width="98" x="159.5" y="358.9277"/><text fill="#000000" font-family="sans-serif" font-size="14" lengthAdjust="spacing" textLength="84" x="166.5" y="379.4629">ShareCreate</text><rect fill="#FEFECE" filter="url(#fb2ea20npgzp8)" height="30.4883" style="stroke:#A80036;stroke-width:1.5;" width="77" x="368" y="53"/><text fill="#000000" font-family="sans-serif" font-size="14" lengthAdjust="spacing" textLength="63" x="375" y="73.5352">Database</text><rect fill="#FEFECE" filter="url(#fb2ea20npgzp8)" height="30.4883" style="stroke:#A80036;stroke-width:1.5;" width="77" x="368" y="358.9277"/><text fill="#000000" font-family="sans-serif" font-size="14" lengthAdjust="spacing" textLength="63" x="375" y="379.4629">Database</text><rect fill="#FFFFFF" filter="url(#fb2ea20npgzp8)" height="192.8184" style="stroke:#A80036;stroke-width:1.0;" width="10" x="205.5" y="119.7988"/><rect fill="#FFFFFF" filter="url(#fb2ea20npgzp8)" height="192.8184" style="stroke:#A80036;stroke-width:1.0;" width="10" x="403.5" y="149.1094"/><polygon fill="#A80036" points="193.5,115.7988,203.5,119.7988,193.5,123.7988,197.5,119.7988" style="stroke:#A80036;stroke-width:1.0;"/><line style="stroke:#A80036;stroke-width:1.0;" x1="38.5" x2="199.5" y1="119.7988" y2="119.7988"/><text fill="#000000" font-family="sans-serif" font-size="13" lengthAdjust="spacing" textLength="148" x="45.5" y="115.0566">Enter target's username</text><polygon fill="#A80036" points="391.5,145.1094,401.5,149.1094,391.5,153.1094,395.5,149.1094" style="stroke:#A80036;stroke-width:1.0;"/><line style="stroke:#A80036;stroke-width:1.0;" x1="215.5" x2="397.5" y1="149.1094" y2="149.1094"/><text fill="#000000" font-family="sans-serif" font-size="13" lengthAdjust="spacing" textLength="102" x="222.5" y="144.3672">check username</text><path d="M10,164.1094 L72,164.1094 L72,171.1094 L62,181.1094 L10,181.1094 L10,164.1094 " fill="#EEEEEE" style="stroke:#000000;stroke-width:1.0;"/><rect fill="none" height="120.1973" style="stroke:#000000;stroke-width:2.0;" width="449" x="10" y="164.1094"/><text fill="#000000" font-family="sans-serif" font-size="13" font-weight="bold" lengthAdjust="spacing" textLength="17" x="25" y="177.6777">alt</text><text fill="#000000" font-family="sans-serif" font-size="11" font-weight="bold" lengthAdjust="spacing" textLength="105" x="87" y="176.7441">[if username exist]</text><polygon fill="#A80036" points="226.5,198.7305,216.5,202.7305,226.5,206.7305,222.5,202.7305" style="stroke:#A80036;stroke-width:1.0;"/><line style="stroke:#A80036;stroke-width:1.0;stroke-dasharray:2.0,2.0;" x1="220.5" x2="402.5" y1="202.7305" y2="202.7305"/><text fill="#000000" font-family="sans-serif" font-size="13" lengthAdjust="spacing" textLength="111" x="232.5" y="197.9883">username is exist</text><line style="stroke:#000000;stroke-width:1.0;stroke-dasharray:2.0,2.0;" x1="10" x2="459" y1="211.7305" y2="211.7305"/><text fill="#000000" font-family="sans-serif" font-size="11" font-weight="bold" lengthAdjust="spacing" textLength="114" x="15" y="222.3652">[username not exist]</text><polygon fill="#A80036" points="226.5,242.9961,216.5,246.9961,226.5,250.9961,222.5,246.9961" style="stroke:#A80036;stroke-width:1.0;"/><line style="stroke:#A80036;stroke-width:1.0;stroke-dasharray:2.0,2.0;" x1="220.5" x2="402.5" y1="246.9961" y2="246.9961"/><text fill="#000000" font-family="sans-serif" font-size="13" lengthAdjust="spacing" textLength="139" x="232.5" y="242.2539">username is non exist</text><polygon fill="#A80036" points="49.5,272.3066,39.5,276.3066,49.5,280.3066,45.5,276.3066" style="stroke:#A80036;stroke-width:1.0;"/><line style="stroke:#A80036;stroke-width:1.0;stroke-dasharray:2.0,2.0;" x1="43.5" x2="204.5" y1="276.3066" y2="276.3066"/><text fill="#000000" font-family="sans-serif" font-size="13" lengthAdjust="spacing" textLength="143" x="55.5" y="271.5645">send warning message</text><polygon fill="#A80036" points="391.5,308.6172,401.5,312.6172,391.5,316.6172,395.5,312.6172" style="stroke:#A80036;stroke-width:1.0;"/><line style="stroke:#A80036;stroke-width:1.0;" x1="210.5" x2="397.5" y1="312.6172" y2="312.6172"/><text fill="#000000" font-family="sans-serif" font-size="13" lengthAdjust="spacing" textLength="164" x="217.5" y="307.875">add new share permission</text><polygon fill="#A80036" points="49.5,337.9277,39.5,341.9277,49.5,345.9277,45.5,341.9277" style="stroke:#A80036;stroke-width:1.0;"/><line style="stroke:#A80036;stroke-width:1.0;stroke-dasharray:2.0,2.0;" x1="43.5" x2="407.5" y1="341.9277" y2="341.9277"/><text fill="#000000" font-family="sans-serif" font-size="13" lengthAdjust="spacing" textLength="55" x="55.5" y="337.1855">Display()</text><!--MD5=[7fb49bc19f1429da2864795a632b89c9]
@startuml
Actor User
User -> ShareCreate : Enter target's username
activate ShareCreate
ShareCreate -> Database : check username
activate Database
alt if username exist
Database - -> ShareCreate  : username is exist
else username not exist
Database - -> ShareCreate  : username is non exist
ShareCreate  - -> User : send warning message
end
ShareCreate -> Database : add new share permission
deactivate ShareCreate
Database - -> User : Display()
deactivate Database
@enduml

PlantUML version 1.2022.0(Tue Jan 11 23:16:42 ICT 2022)
(GPL source distribution)
Java Runtime: OpenJDK Runtime Environment
JVM: OpenJDK 64-Bit Server VM
Default Encoding: UTF-8
Language: en
Country: TH
--></g></svg>