<?xml version="1.0" encoding="UTF-8" standalone="no"?><svg xmlns="http://www.w3.org/2000/svg" xmlns:xlink="http://www.w3.org/1999/xlink" contentScriptType="application/ecmascript" contentStyleType="text/css" height="398px" preserveAspectRatio="none" style="width:704px;height:398px;background:#FFFFFF;" version="1.1" viewBox="0 0 704 398" width="704px" zoomAndPan="magnify"><defs><filter height="300%" id="f91xtsk5xab87" width="300%" x="-1" y="-1"><feGaussianBlur result="blurOut" stdDeviation="2.0"/><feColorMatrix in="blurOut" result="blurOut2" type="matrix" values="0 0 0 0 0 0 0 0 0 0 0 0 0 0 0 0 0 0 .4 0"/><feOffset dx="4.0" dy="4.0" in="blurOut2" result="blurOut3"/><feBlend in="SourceGraphic" in2="blurOut3" mode="normal"/></filter></defs><g><rect fill="#FFFFFF" filter="url(#f91xtsk5xab87)" height="175.8633" style="stroke:#A80036;stroke-width:1.0;" width="10" x="231.5" y="119.7988"/><rect fill="#FFFFFF" filter="url(#f91xtsk5xab87)" height="117.2422" style="stroke:#A80036;stroke-width:1.0;" width="10" x="465.5" y="149.1094"/><rect fill="#FFFFFF" filter="url(#f91xtsk5xab87)" height="29.3105" style="stroke:#A80036;stroke-width:1.0;" width="10" x="648.5" y="237.041"/><line style="stroke:#A80036;stroke-width:1.0;stroke-dasharray:5.0,5.0;" x1="23" x2="23" y1="88.4883" y2="313.6621"/><line style="stroke:#A80036;stroke-width:1.0;stroke-dasharray:5.0,5.0;" x1="236.5" x2="236.5" y1="88.4883" y2="313.6621"/><line style="stroke:#A80036;stroke-width:1.0;stroke-dasharray:5.0,5.0;" x1="470" x2="470" y1="88.4883" y2="313.6621"/><line style="stroke:#A80036;stroke-width:1.0;stroke-dasharray:5.0,5.0;" x1="653" x2="653" y1="88.4883" y2="313.6621"/><text fill="#000000" font-family="sans-serif" font-size="14" lengthAdjust="spacing" textLength="31" x="5" y="85.5352">User</text><ellipse cx="23.5" cy="15" fill="#FEFECE" filter="url(#f91xtsk5xab87)" rx="8" ry="8" style="stroke:#A80036;stroke-width:2.0;"/><path d="M23.5,23 L23.5,50 M10.5,31 L36.5,31 M23.5,50 L10.5,65 M23.5,50 L36.5,65 " fill="none" filter="url(#f91xtsk5xab87)" style="stroke:#A80036;stroke-width:2.0;"/><text fill="#000000" font-family="sans-serif" font-size="14" lengthAdjust="spacing" textLength="31" x="5" y="326.1973">User</text><ellipse cx="23.5" cy="339.1504" fill="#FEFECE" filter="url(#f91xtsk5xab87)" rx="8" ry="8" style="stroke:#A80036;stroke-width:2.0;"/><path d="M23.5,347.1504 L23.5,374.1504 M10.5,355.1504 L36.5,355.1504 M23.5,374.1504 L10.5,389.1504 M23.5,374.1504 L36.5,389.1504 " fill="none" filter="url(#f91xtsk5xab87)" style="stroke:#A80036;stroke-width:2.0;"/><rect fill="#FEFECE" filter="url(#f91xtsk5xab87)" height="30.4883" style="stroke:#A80036;stroke-width:1.5;" width="76" x="196.5" y="53"/><text fill="#000000" font-family="sans-serif" font-size="14" lengthAdjust="spacing" textLength="62" x="203.5" y="73.5352">ShareList</text><rect fill="#FEFECE" filter="url(#f91xtsk5xab87)" height="30.4883" style="stroke:#A80036;stroke-width:1.5;" width="76" x="196.5" y="312.6621"/><text fill="#000000" font-family="sans-serif" font-size="14" lengthAdjust="spacing" textLength="62" x="203.5" y="333.1973">ShareList</text><rect fill="#FEFECE" filter="url(#f91xtsk5xab87)" height="30.4883" style="stroke:#A80036;stroke-width:1.5;" width="89" x="424" y="53"/><text fill="#000000" font-family="sans-serif" font-size="14" lengthAdjust="spacing" textLength="75" x="431" y="73.5352">DeleteView</text><rect fill="#FEFECE" filter="url(#f91xtsk5xab87)" height="30.4883" style="stroke:#A80036;stroke-width:1.5;" width="89" x="424" y="312.6621"/><text fill="#000000" font-family="sans-serif" font-size="14" lengthAdjust="spacing" textLength="75" x="431" y="333.1973">DeleteView</text><rect fill="#FEFECE" filter="url(#f91xtsk5xab87)" height="30.4883" style="stroke:#A80036;stroke-width:1.5;" width="77" x="613" y="53"/><text fill="#000000" font-family="sans-serif" font-size="14" lengthAdjust="spacing" textLength="63" x="620" y="73.5352">Database</text><rect fill="#FEFECE" filter="url(#f91xtsk5xab87)" height="30.4883" style="stroke:#A80036;stroke-width:1.5;" width="77" x="613" y="312.6621"/><text fill="#000000" font-family="sans-serif" font-size="14" lengthAdjust="spacing" textLength="63" x="620" y="333.1973">Database</text><rect fill="#FFFFFF" filter="url(#f91xtsk5xab87)" height="175.8633" style="stroke:#A80036;stroke-width:1.0;" width="10" x="231.5" y="119.7988"/><rect fill="#FFFFFF" filter="url(#f91xtsk5xab87)" height="117.2422" style="stroke:#A80036;stroke-width:1.0;" width="10" x="465.5" y="149.1094"/><rect fill="#FFFFFF" filter="url(#f91xtsk5xab87)" height="29.3105" style="stroke:#A80036;stroke-width:1.0;" width="10" x="648.5" y="237.041"/><polygon fill="#A80036" points="219.5,115.7988,229.5,119.7988,219.5,123.7988,223.5,119.7988" style="stroke:#A80036;stroke-width:1.0;"/><line style="stroke:#A80036;stroke-width:1.0;" x1="23.5" x2="225.5" y1="119.7988" y2="119.7988"/><text fill="#000000" font-family="sans-serif" font-size="13" lengthAdjust="spacing" textLength="189" x="30.5" y="115.0566">click cross mark behind share</text><polygon fill="#A80036" points="453.5,145.1094,463.5,149.1094,453.5,153.1094,457.5,149.1094" style="stroke:#A80036;stroke-width:1.0;"/><line style="stroke:#A80036;stroke-width:1.0;" x1="241.5" x2="459.5" y1="149.1094" y2="149.1094"/><text fill="#000000" font-family="sans-serif" font-size="13" lengthAdjust="spacing" textLength="205" x="248.5" y="144.3672">request revoke share permission</text><polygon fill="#A80036" points="34.5,174.4199,24.5,178.4199,34.5,182.4199,30.5,178.4199" style="stroke:#A80036;stroke-width:1.0;"/><line style="stroke:#A80036;stroke-width:1.0;" x1="28.5" x2="464.5" y1="178.4199" y2="178.4199"/><text fill="#000000" font-family="sans-serif" font-size="13" lengthAdjust="spacing" textLength="174" x="40.5" y="173.6777">send confirmation message</text><polygon fill="#A80036" points="453.5,203.7305,463.5,207.7305,453.5,211.7305,457.5,207.7305" style="stroke:#A80036;stroke-width:1.0;"/><line style="stroke:#A80036;stroke-width:1.0;" x1="23.5" x2="459.5" y1="207.7305" y2="207.7305"/><text fill="#000000" font-family="sans-serif" font-size="13" lengthAdjust="spacing" textLength="49" x="30.5" y="202.9883">confirm</text><polygon fill="#A80036" points="636.5,233.041,646.5,237.041,636.5,241.041,640.5,237.041" style="stroke:#A80036;stroke-width:1.0;"/><line style="stroke:#A80036;stroke-width:1.0;" x1="475.5" x2="642.5" y1="237.041" y2="237.041"/><text fill="#000000" font-family="sans-serif" font-size="13" lengthAdjust="spacing" textLength="154" x="482.5" y="232.2988">revoke share permission</text><polygon fill="#A80036" points="252.5,262.3516,242.5,266.3516,252.5,270.3516,248.5,266.3516" style="stroke:#A80036;stroke-width:1.0;"/><line style="stroke:#A80036;stroke-width:1.0;stroke-dasharray:2.0,2.0;" x1="246.5" x2="652.5" y1="266.3516" y2="266.3516"/><text fill="#000000" font-family="sans-serif" font-size="13" lengthAdjust="spacing" textLength="48" x="258.5" y="261.6094">redirect</text><polygon fill="#A80036" points="34.5,291.6621,24.5,295.6621,34.5,299.6621,30.5,295.6621" style="stroke:#A80036;stroke-width:1.0;"/><line style="stroke:#A80036;stroke-width:1.0;stroke-dasharray:2.0,2.0;" x1="28.5" x2="235.5" y1="295.6621" y2="295.6621"/><text fill="#000000" font-family="sans-serif" font-size="13" lengthAdjust="spacing" textLength="45" x="40.5" y="290.9199">display</text><!--MD5=[52c534e085ac38af12b6ed8997c53c38]
@startuml
Actor User
User -> ShareList : click cross mark behind share
activate ShareList
ShareList -> DeleteView : request revoke share permission
activate DeleteView
DeleteView -> User : send confirmation message
User -> DeleteView : confirm
DeleteView -> Database : revoke share permission
activate Database
Database - -> ShareList : redirect
deactivate Database
deactivate DeleteView
ShareList - -> User : display
deactivate ShareList
@enduml

PlantUML version 1.2022.0(Tue Jan 11 23:16:42 ICT 2022)
(GPL source distribution)
Java Runtime: OpenJDK Runtime Environment
JVM: OpenJDK 64-Bit Server VM
Default Encoding: UTF-8
Language: en
Country: TH
--></g></svg>