<?xml version="1.0" encoding="UTF-8" standalone="no"?><svg xmlns="http://www.w3.org/2000/svg" xmlns:xlink="http://www.w3.org/1999/xlink" contentScriptType="application/ecmascript" contentStyleType="text/css" height="637px" preserveAspectRatio="none" style="width:735px;height:637px;background:#FFFFFF;" version="1.1" viewBox="0 0 735 637" width="735px" zoomAndPan="magnify"><defs><filter height="300%" id="fn26fvcxnaap9" width="300%" x="-1" y="-1"><feGaussianBlur result="blurOut" stdDeviation="2.0"/><feColorMatrix in="blurOut" result="blurOut2" type="matrix" values="0 0 0 0 0 0 0 0 0 0 0 0 0 0 0 0 0 0 .4 0"/><feOffset dx="4.0" dy="4.0" in="blurOut2" result="blurOut3"/><feBlend in="SourceGraphic" in2="blurOut3" mode="normal"/></filter></defs><g><rect fill="#FFFFFF" filter="url(#fn26fvcxnaap9)" height="414.9473" style="stroke:#A80036;stroke-width:1.0;" width="10" x="245.5" y="119.7988"/><rect fill="#FFFFFF" filter="url(#fn26fvcxnaap9)" height="356.3262" style="stroke:#A80036;stroke-width:1.0;" width="10" x="492.5" y="149.1094"/><rect fill="#FFFFFF" filter="url(#fn26fvcxnaap9)" height="305.7051" style="stroke:#A80036;stroke-width:1.0;" width="10" x="665.5" y="178.4199"/><rect fill="#FFFFFF" filter="url(#fn26fvcxnaap9)" height="120.1973" style="stroke:#000000;stroke-width:2.0;" width="711" x="10" y="193.4199"/><rect fill="#FFFFFF" height="73.5762" style="stroke:none;stroke-width:1.0;" width="711" x="10" y="240.041"/><rect fill="#FFFFFF" filter="url(#fn26fvcxnaap9)" height="120.1973" style="stroke:#000000;stroke-width:2.0;" width="711" x="10" y="356.9277"/><rect fill="#FFFFFF" height="73.5762" style="stroke:none;stroke-width:1.0;" width="711" x="10" y="403.5488"/><line style="stroke:#A80036;stroke-width:1.0;stroke-dasharray:5.0,5.0;" x1="38" x2="38" y1="88.4883" y2="552.7461"/><line style="stroke:#A80036;stroke-width:1.0;stroke-dasharray:5.0,5.0;" x1="250.5" x2="250.5" y1="88.4883" y2="552.7461"/><line style="stroke:#A80036;stroke-width:1.0;stroke-dasharray:5.0,5.0;" x1="497.5" x2="497.5" y1="88.4883" y2="552.7461"/><line style="stroke:#A80036;stroke-width:1.0;stroke-dasharray:5.0,5.0;" x1="670" x2="670" y1="88.4883" y2="552.7461"/><text fill="#000000" font-family="sans-serif" font-size="14" lengthAdjust="spacing" textLength="31" x="20" y="85.5352">User</text><ellipse cx="38.5" cy="15" fill="#FEFECE" filter="url(#fn26fvcxnaap9)" rx="8" ry="8" style="stroke:#A80036;stroke-width:2.0;"/><path d="M38.5,23 L38.5,50 M25.5,31 L51.5,31 M38.5,50 L25.5,65 M38.5,50 L51.5,65 " fill="none" filter="url(#fn26fvcxnaap9)" style="stroke:#A80036;stroke-width:2.0;"/><text fill="#000000" font-family="sans-serif" font-size="14" lengthAdjust="spacing" textLength="31" x="20" y="565.2813">User</text><ellipse cx="38.5" cy="578.2344" fill="#FEFECE" filter="url(#fn26fvcxnaap9)" rx="8" ry="8" style="stroke:#A80036;stroke-width:2.0;"/><path d="M38.5,586.2344 L38.5,613.2344 M25.5,594.2344 L51.5,594.2344 M38.5,613.2344 L25.5,628.2344 M38.5,613.2344 L51.5,628.2344 " fill="none" filter="url(#fn26fvcxnaap9)" style="stroke:#A80036;stroke-width:2.0;"/><rect fill="#FEFECE" filter="url(#fn26fvcxnaap9)" height="30.4883" style="stroke:#A80036;stroke-width:1.5;" width="84" x="206.5" y="53"/><text fill="#000000" font-family="sans-serif" font-size="14" lengthAdjust="spacing" textLength="70" x="213.5" y="73.5352">LoginView</text><rect fill="#FEFECE" filter="url(#fn26fvcxnaap9)" height="30.4883" style="stroke:#A80036;stroke-width:1.5;" width="84" x="206.5" y="551.7461"/><text fill="#000000" font-family="sans-serif" font-size="14" lengthAdjust="spacing" textLength="70" x="213.5" y="572.2813">LoginView</text><rect fill="#FEFECE" filter="url(#fn26fvcxnaap9)" height="30.4883" style="stroke:#A80036;stroke-width:1.5;" width="172" x="409.5" y="53"/><text fill="#000000" font-family="sans-serif" font-size="14" lengthAdjust="spacing" textLength="158" x="416.5" y="73.5352">AuthenticationBackend</text><rect fill="#FEFECE" filter="url(#fn26fvcxnaap9)" height="30.4883" style="stroke:#A80036;stroke-width:1.5;" width="172" x="409.5" y="551.7461"/><text fill="#000000" font-family="sans-serif" font-size="14" lengthAdjust="spacing" textLength="158" x="416.5" y="572.2813">AuthenticationBackend</text><rect fill="#FEFECE" filter="url(#fn26fvcxnaap9)" height="30.4883" style="stroke:#A80036;stroke-width:1.5;" width="77" x="630" y="53"/><text fill="#000000" font-family="sans-serif" font-size="14" lengthAdjust="spacing" textLength="63" x="637" y="73.5352">Database</text><rect fill="#FEFECE" filter="url(#fn26fvcxnaap9)" height="30.4883" style="stroke:#A80036;stroke-width:1.5;" width="77" x="630" y="551.7461"/><text fill="#000000" font-family="sans-serif" font-size="14" lengthAdjust="spacing" textLength="63" x="637" y="572.2813">Database</text><rect fill="#FFFFFF" filter="url(#fn26fvcxnaap9)" height="414.9473" style="stroke:#A80036;stroke-width:1.0;" width="10" x="245.5" y="119.7988"/><rect fill="#FFFFFF" filter="url(#fn26fvcxnaap9)" height="356.3262" style="stroke:#A80036;stroke-width:1.0;" width="10" x="492.5" y="149.1094"/><rect fill="#FFFFFF" filter="url(#fn26fvcxnaap9)" height="305.7051" style="stroke:#A80036;stroke-width:1.0;" width="10" x="665.5" y="178.4199"/><polygon fill="#A80036" points="233.5,115.7988,243.5,119.7988,233.5,123.7988,237.5,119.7988" style="stroke:#A80036;stroke-width:1.0;"/><line style="stroke:#A80036;stroke-width:1.0;" x1="38.5" x2="239.5" y1="119.7988" y2="119.7988"/><text fill="#000000" font-family="sans-serif" font-size="13" lengthAdjust="spacing" textLength="188" x="45.5" y="115.0566">Enter username and password</text><polygon fill="#A80036" points="480.5,145.1094,490.5,149.1094,480.5,153.1094,484.5,149.1094" style="stroke:#A80036;stroke-width:1.0;"/><line style="stroke:#A80036;stroke-width:1.0;" x1="255.5" x2="486.5" y1="149.1094" y2="149.1094"/><text fill="#000000" font-family="sans-serif" font-size="13" lengthAdjust="spacing" textLength="218" x="262.5" y="144.3672">validation username and password</text><polygon fill="#A80036" points="653.5,174.4199,663.5,178.4199,653.5,182.4199,657.5,178.4199" style="stroke:#A80036;stroke-width:1.0;"/><line style="stroke:#A80036;stroke-width:1.0;" x1="502.5" x2="659.5" y1="178.4199" y2="178.4199"/><text fill="#000000" font-family="sans-serif" font-size="13" lengthAdjust="spacing" textLength="102" x="509.5" y="173.6777">check username</text><path d="M10,193.4199 L72,193.4199 L72,200.4199 L62,210.4199 L10,210.4199 L10,193.4199 " fill="#EEEEEE" style="stroke:#000000;stroke-width:1.0;"/><rect fill="none" height="120.1973" style="stroke:#000000;stroke-width:2.0;" width="711" x="10" y="193.4199"/><text fill="#000000" font-family="sans-serif" font-size="13" font-weight="bold" lengthAdjust="spacing" textLength="17" x="25" y="206.9883">alt</text><text fill="#000000" font-family="sans-serif" font-size="11" font-weight="bold" lengthAdjust="spacing" textLength="105" x="87" y="206.0547">[if username exist]</text><polygon fill="#A80036" points="513.5,228.041,503.5,232.041,513.5,236.041,509.5,232.041" style="stroke:#A80036;stroke-width:1.0;"/><line style="stroke:#A80036;stroke-width:1.0;stroke-dasharray:2.0,2.0;" x1="507.5" x2="664.5" y1="232.041" y2="232.041"/><text fill="#000000" font-family="sans-serif" font-size="13" lengthAdjust="spacing" textLength="111" x="519.5" y="227.2988">username is exist</text><line style="stroke:#000000;stroke-width:1.0;stroke-dasharray:2.0,2.0;" x1="10" x2="721" y1="241.041" y2="241.041"/><text fill="#000000" font-family="sans-serif" font-size="11" font-weight="bold" lengthAdjust="spacing" textLength="114" x="15" y="251.6758">[username not exist]</text><polygon fill="#A80036" points="513.5,272.3066,503.5,276.3066,513.5,280.3066,509.5,276.3066" style="stroke:#A80036;stroke-width:1.0;"/><line style="stroke:#A80036;stroke-width:1.0;stroke-dasharray:2.0,2.0;" x1="507.5" x2="664.5" y1="276.3066" y2="276.3066"/><text fill="#000000" font-family="sans-serif" font-size="13" lengthAdjust="spacing" textLength="139" x="519.5" y="271.5645">username is non exist</text><polygon fill="#A80036" points="49.5,301.6172,39.5,305.6172,49.5,309.6172,45.5,305.6172" style="stroke:#A80036;stroke-width:1.0;"/><line style="stroke:#A80036;stroke-width:1.0;stroke-dasharray:2.0,2.0;" x1="43.5" x2="491.5" y1="305.6172" y2="305.6172"/><text fill="#000000" font-family="sans-serif" font-size="13" lengthAdjust="spacing" textLength="143" x="55.5" y="300.875">send warning message</text><polygon fill="#A80036" points="653.5,337.9277,663.5,341.9277,653.5,345.9277,657.5,341.9277" style="stroke:#A80036;stroke-width:1.0;"/><line style="stroke:#A80036;stroke-width:1.0;" x1="502.5" x2="659.5" y1="341.9277" y2="341.9277"/><text fill="#000000" font-family="sans-serif" font-size="13" lengthAdjust="spacing" textLength="101" x="509.5" y="337.1855">check password</text><path d="M10,356.9277 L72,356.9277 L72,363.9277 L62,373.9277 L10,373.9277 L10,356.9277 " fill="#EEEEEE" style="stroke:#000000;stroke-width:1.0;"/><rect fill="none" height="120.1973" style="stroke:#000000;stroke-width:2.0;" width="711" x="10" y="356.9277"/><text fill="#000000" font-family="sans-serif" font-size="13" font-weight="bold" lengthAdjust="spacing" textLength="17" x="25" y="370.4961">alt</text><text fill="#000000" font-family="sans-serif" font-size="11" font-weight="bold" lengthAdjust="spacing" textLength="120" x="87" y="369.5625">[if password is valid]</text><polygon fill="#A80036" points="513.5,391.5488,503.5,395.5488,513.5,399.5488,509.5,395.5488" style="stroke:#A80036;stroke-width:1.0;"/><line style="stroke:#A80036;stroke-width:1.0;stroke-dasharray:2.0,2.0;" x1="507.5" x2="664.5" y1="395.5488" y2="395.5488"/><text fill="#000000" font-family="sans-serif" font-size="13" lengthAdjust="spacing" textLength="92" x="519.5" y="390.8066">send user data</text><line style="stroke:#000000;stroke-width:1.0;stroke-dasharray:2.0,2.0;" x1="10" x2="721" y1="404.5488" y2="404.5488"/><text fill="#000000" font-family="sans-serif" font-size="11" font-weight="bold" lengthAdjust="spacing" textLength="118" x="15" y="415.1836">[password is invalid]</text><polygon fill="#A80036" points="513.5,435.8145,503.5,439.8145,513.5,443.8145,509.5,439.8145" style="stroke:#A80036;stroke-width:1.0;"/><line style="stroke:#A80036;stroke-width:1.0;stroke-dasharray:2.0,2.0;" x1="507.5" x2="664.5" y1="439.8145" y2="439.8145"/><text fill="#000000" font-family="sans-serif" font-size="13" lengthAdjust="spacing" textLength="121" x="519.5" y="435.0723">password is invalid</text><polygon fill="#A80036" points="49.5,465.125,39.5,469.125,49.5,473.125,45.5,469.125" style="stroke:#A80036;stroke-width:1.0;"/><line style="stroke:#A80036;stroke-width:1.0;stroke-dasharray:2.0,2.0;" x1="43.5" x2="491.5" y1="469.125" y2="469.125"/><text fill="#000000" font-family="sans-serif" font-size="13" lengthAdjust="spacing" textLength="143" x="55.5" y="464.3828">send warning message</text><polygon fill="#A80036" points="266.5,501.4355,256.5,505.4355,266.5,509.4355,262.5,505.4355" style="stroke:#A80036;stroke-width:1.0;"/><line style="stroke:#A80036;stroke-width:1.0;stroke-dasharray:2.0,2.0;" x1="260.5" x2="496.5" y1="505.4355" y2="505.4355"/><text fill="#000000" font-family="sans-serif" font-size="13" lengthAdjust="spacing" textLength="124" x="272.5" y="500.6934">User login accepted</text><polygon fill="#A80036" points="49.5,530.7461,39.5,534.7461,49.5,538.7461,45.5,534.7461" style="stroke:#A80036;stroke-width:1.0;"/><line style="stroke:#A80036;stroke-width:1.0;stroke-dasharray:2.0,2.0;" x1="43.5" x2="249.5" y1="534.7461" y2="534.7461"/><text fill="#000000" font-family="sans-serif" font-size="13" lengthAdjust="spacing" textLength="89" x="55.5" y="530.0039">Login success</text><!--MD5=[5acd80138339bb033e0bb38a1dcfbde5]
@startuml
Actor User
User -> LoginView : Enter username and password
activate LoginView
LoginView -> AuthenticationBackend : validation username and password
activate AuthenticationBackend
AuthenticationBackend -> Database : check username
activate Database
alt if username exist
Database - -> AuthenticationBackend : username is exist
else username not exist
Database - -> AuthenticationBackend : username is non exist
AuthenticationBackend - -> User : send warning message
end
AuthenticationBackend -> Database : check password
alt if password is valid
Database - -> AuthenticationBackend : send user data
else password is invalid
Database - -> AuthenticationBackend : password is invalid
AuthenticationBackend - -> User : send warning message
end
deactivate Database
AuthenticationBackend - -> LoginView : User login accepted
deactivate AuthenticationBackend
LoginView - -> User : Login success
deactivate LoginView
@enduml

PlantUML version 1.2022.0(Tue Jan 11 23:16:42 ICT 2022)
(GPL source distribution)
Java Runtime: OpenJDK Runtime Environment
JVM: OpenJDK 64-Bit Server VM
Default Encoding: UTF-8
Language: en
Country: TH
--></g></svg>