<?xml version="1.0" encoding="UTF-8" standalone="no"?><svg xmlns="http://www.w3.org/2000/svg" xmlns:xlink="http://www.w3.org/1999/xlink" contentScriptType="application/ecmascript" contentStyleType="text/css" height="280px" preserveAspectRatio="none" style="width:284px;height:280px;background:#FFFFFF;" version="1.1" viewBox="0 0 284 280" width="284px" zoomAndPan="magnify"><defs><filter height="300%" id="f1n2jn8a7ycjeu" width="300%" x="-1" y="-1"><feGaussianBlur result="blurOut" stdDeviation="2.0"/><feColorMatrix in="blurOut" result="blurOut2" type="matrix" values="0 0 0 0 0 0 0 0 0 0 0 0 0 0 0 0 0 0 .4 0"/><feOffset dx="4.0" dy="4.0" in="blurOut2" result="blurOut3"/><feBlend in="SourceGraphic" in2="blurOut3" mode="normal"/></filter></defs><g><rect fill="#FFFFFF" filter="url(#f1n2jn8a7ycjeu)" height="29.3105" style="stroke:#A80036;stroke-width:1.0;" width="10" x="122.5" y="119.7988"/><rect fill="#FFFFFF" filter="url(#f1n2jn8a7ycjeu)" height="29.3105" style="stroke:#A80036;stroke-width:1.0;" width="10" x="225.5" y="149.1094"/><line style="stroke:#A80036;stroke-width:1.0;stroke-dasharray:5.0,5.0;" x1="23" x2="23" y1="88.4883" y2="196.4199"/><line style="stroke:#A80036;stroke-width:1.0;stroke-dasharray:5.0,5.0;" x1="127.5" x2="127.5" y1="88.4883" y2="196.4199"/><line style="stroke:#A80036;stroke-width:1.0;stroke-dasharray:5.0,5.0;" x1="230.5" x2="230.5" y1="88.4883" y2="196.4199"/><text fill="#000000" font-family="sans-serif" font-size="14" lengthAdjust="spacing" textLength="31" x="5" y="85.5352">User</text><ellipse cx="23.5" cy="15" fill="#FEFECE" filter="url(#f1n2jn8a7ycjeu)" rx="8" ry="8" style="stroke:#A80036;stroke-width:2.0;"/><path d="M23.5,23 L23.5,50 M10.5,31 L36.5,31 M23.5,50 L10.5,65 M23.5,50 L36.5,65 " fill="none" filter="url(#f1n2jn8a7ycjeu)" style="stroke:#A80036;stroke-width:2.0;"/><text fill="#000000" font-family="sans-serif" font-size="14" lengthAdjust="spacing" textLength="31" x="5" y="208.9551">User</text><ellipse cx="23.5" cy="221.9082" fill="#FEFECE" filter="url(#f1n2jn8a7ycjeu)" rx="8" ry="8" style="stroke:#A80036;stroke-width:2.0;"/><path d="M23.5,229.9082 L23.5,256.9082 M10.5,237.9082 L36.5,237.9082 M23.5,256.9082 L10.5,271.9082 M23.5,256.9082 L36.5,271.9082 " fill="none" filter="url(#f1n2jn8a7ycjeu)" style="stroke:#A80036;stroke-width:2.0;"/><rect fill="#FEFECE" filter="url(#f1n2jn8a7ycjeu)" height="30.4883" style="stroke:#A80036;stroke-width:1.5;" width="94" x="78.5" y="53"/><text fill="#000000" font-family="sans-serif" font-size="14" lengthAdjust="spacing" textLength="80" x="85.5" y="73.5352">LogoutView</text><rect fill="#FEFECE" filter="url(#f1n2jn8a7ycjeu)" height="30.4883" style="stroke:#A80036;stroke-width:1.5;" width="94" x="78.5" y="195.4199"/><text fill="#000000" font-family="sans-serif" font-size="14" lengthAdjust="spacing" textLength="80" x="85.5" y="215.9551">LogoutView</text><rect fill="#FEFECE" filter="url(#f1n2jn8a7ycjeu)" height="30.4883" style="stroke:#A80036;stroke-width:1.5;" width="84" x="186.5" y="53"/><text fill="#000000" font-family="sans-serif" font-size="14" lengthAdjust="spacing" textLength="70" x="193.5" y="73.5352">LoginView</text><rect fill="#FEFECE" filter="url(#f1n2jn8a7ycjeu)" height="30.4883" style="stroke:#A80036;stroke-width:1.5;" width="84" x="186.5" y="195.4199"/><text fill="#000000" font-family="sans-serif" font-size="14" lengthAdjust="spacing" textLength="70" x="193.5" y="215.9551">LoginView</text><rect fill="#FFFFFF" filter="url(#f1n2jn8a7ycjeu)" height="29.3105" style="stroke:#A80036;stroke-width:1.0;" width="10" x="122.5" y="119.7988"/><rect fill="#FFFFFF" filter="url(#f1n2jn8a7ycjeu)" height="29.3105" style="stroke:#A80036;stroke-width:1.0;" width="10" x="225.5" y="149.1094"/><polygon fill="#A80036" points="110.5,115.7988,120.5,119.7988,110.5,123.7988,114.5,119.7988" style="stroke:#A80036;stroke-width:1.0;"/><line style="stroke:#A80036;stroke-width:1.0;" x1="23.5" x2="116.5" y1="119.7988" y2="119.7988"/><text fill="#000000" font-family="sans-serif" font-size="13" lengthAdjust="spacing" textLength="80" x="30.5" y="115.0566">Click Logout</text><polygon fill="#A80036" points="213.5,145.1094,223.5,149.1094,213.5,153.1094,217.5,149.1094" style="stroke:#A80036;stroke-width:1.0;"/><line style="stroke:#A80036;stroke-width:1.0;" x1="127.5" x2="219.5" y1="149.1094" y2="149.1094"/><text fill="#000000" font-family="sans-serif" font-size="13" lengthAdjust="spacing" textLength="56" x="134.5" y="144.3672">redirect()</text><polygon fill="#A80036" points="34.5,174.4199,24.5,178.4199,34.5,182.4199,30.5,178.4199" style="stroke:#A80036;stroke-width:1.0;"/><line style="stroke:#A80036;stroke-width:1.0;stroke-dasharray:2.0,2.0;" x1="28.5" x2="229.5" y1="178.4199" y2="178.4199"/><text fill="#000000" font-family="sans-serif" font-size="13" lengthAdjust="spacing" textLength="55" x="40.5" y="173.6777">Display()</text><!--MD5=[0e4db3a302f959543aa76694f6c7dd43]
@startuml
Actor User
User -> LogoutView : Click Logout
activate LogoutView
LogoutView -> LoginView:redirect()
deactivate LogoutView
activate LoginView
LoginView - -> User : Display()
deactivate LoginView
@enduml

PlantUML version 1.2022.0(Tue Jan 11 23:16:42 ICT 2022)
(GPL source distribution)
Java Runtime: OpenJDK Runtime Environment
JVM: OpenJDK 64-Bit Server VM
Default Encoding: UTF-8
Language: en
Country: TH
--></g></svg>