<?xml version="1.0" encoding="UTF-8" standalone="no"?><svg xmlns="http://www.w3.org/2000/svg" xmlns:xlink="http://www.w3.org/1999/xlink" contentScriptType="application/ecmascript" contentStyleType="text/css" height="368px" preserveAspectRatio="none" style="width:513px;height:368px;background:#FFFFFF;" version="1.1" viewBox="0 0 513 368" width="513px" zoomAndPan="magnify"><defs><filter height="300%" id="f1gkqabiedf6sm" width="300%" x="-1" y="-1"><feGaussianBlur result="blurOut" stdDeviation="2.0"/><feColorMatrix in="blurOut" result="blurOut2" type="matrix" values="0 0 0 0 0 0 0 0 0 0 0 0 0 0 0 0 0 0 .4 0"/><feOffset dx="4.0" dy="4.0" in="blurOut2" result="blurOut3"/><feBlend in="SourceGraphic" in2="blurOut3" mode="normal"/></filter></defs><g><rect fill="#FFFFFF" filter="url(#f1gkqabiedf6sm)" height="146.5527" style="stroke:#A80036;stroke-width:1.0;" width="10" x="147.5" y="119.7988"/><rect fill="#FFFFFF" filter="url(#f1gkqabiedf6sm)" height="87.9316" style="stroke:#A80036;stroke-width:1.0;" width="10" x="327.5" y="149.1094"/><rect fill="#FFFFFF" filter="url(#f1gkqabiedf6sm)" height="29.3105" style="stroke:#A80036;stroke-width:1.0;" width="10" x="457.5" y="207.7305"/><line style="stroke:#A80036;stroke-width:1.0;stroke-dasharray:5.0,5.0;" x1="23" x2="23" y1="88.4883" y2="284.3516"/><line style="stroke:#A80036;stroke-width:1.0;stroke-dasharray:5.0,5.0;" x1="152" x2="152" y1="88.4883" y2="284.3516"/><line style="stroke:#A80036;stroke-width:1.0;stroke-dasharray:5.0,5.0;" x1="332" x2="332" y1="88.4883" y2="284.3516"/><line style="stroke:#A80036;stroke-width:1.0;stroke-dasharray:5.0,5.0;" x1="462" x2="462" y1="88.4883" y2="284.3516"/><text fill="#000000" font-family="sans-serif" font-size="14" lengthAdjust="spacing" textLength="31" x="5" y="85.5352">User</text><ellipse cx="23.5" cy="15" fill="#FEFECE" filter="url(#f1gkqabiedf6sm)" rx="8" ry="8" style="stroke:#A80036;stroke-width:2.0;"/><path d="M23.5,23 L23.5,50 M10.5,31 L36.5,31 M23.5,50 L10.5,65 M23.5,50 L36.5,65 " fill="none" filter="url(#f1gkqabiedf6sm)" style="stroke:#A80036;stroke-width:2.0;"/><text fill="#000000" font-family="sans-serif" font-size="14" lengthAdjust="spacing" textLength="31" x="5" y="296.8867">User</text><ellipse cx="23.5" cy="309.8398" fill="#FEFECE" filter="url(#f1gkqabiedf6sm)" rx="8" ry="8" style="stroke:#A80036;stroke-width:2.0;"/><path d="M23.5,317.8398 L23.5,344.8398 M10.5,325.8398 L36.5,325.8398 M23.5,344.8398 L10.5,359.8398 M23.5,344.8398 L36.5,359.8398 " fill="none" filter="url(#f1gkqabiedf6sm)" style="stroke:#A80036;stroke-width:2.0;"/><rect fill="#FEFECE" filter="url(#f1gkqabiedf6sm)" height="30.4883" style="stroke:#A80036;stroke-width:1.5;" width="69" x="116" y="53"/><text fill="#000000" font-family="sans-serif" font-size="14" lengthAdjust="spacing" textLength="55" x="123" y="73.5352">TaskList</text><rect fill="#FEFECE" filter="url(#f1gkqabiedf6sm)" height="30.4883" style="stroke:#A80036;stroke-width:1.5;" width="69" x="116" y="283.3516"/><text fill="#000000" font-family="sans-serif" font-size="14" lengthAdjust="spacing" textLength="55" x="123" y="303.8867">TaskList</text><rect fill="#FEFECE" filter="url(#f1gkqabiedf6sm)" height="30.4883" style="stroke:#A80036;stroke-width:1.5;" width="95" x="283" y="53"/><text fill="#000000" font-family="sans-serif" font-size="14" lengthAdjust="spacing" textLength="81" x="290" y="73.5352">TaskUpdate</text><rect fill="#FEFECE" filter="url(#f1gkqabiedf6sm)" height="30.4883" style="stroke:#A80036;stroke-width:1.5;" width="95" x="283" y="283.3516"/><text fill="#000000" font-family="sans-serif" font-size="14" lengthAdjust="spacing" textLength="81" x="290" y="303.8867">TaskUpdate</text><rect fill="#FEFECE" filter="url(#f1gkqabiedf6sm)" height="30.4883" style="stroke:#A80036;stroke-width:1.5;" width="77" x="422" y="53"/><text fill="#000000" font-family="sans-serif" font-size="14" lengthAdjust="spacing" textLength="63" x="429" y="73.5352">Database</text><rect fill="#FEFECE" filter="url(#f1gkqabiedf6sm)" height="30.4883" style="stroke:#A80036;stroke-width:1.5;" width="77" x="422" y="283.3516"/><text fill="#000000" font-family="sans-serif" font-size="14" lengthAdjust="spacing" textLength="63" x="429" y="303.8867">Database</text><rect fill="#FFFFFF" filter="url(#f1gkqabiedf6sm)" height="146.5527" style="stroke:#A80036;stroke-width:1.0;" width="10" x="147.5" y="119.7988"/><rect fill="#FFFFFF" filter="url(#f1gkqabiedf6sm)" height="87.9316" style="stroke:#A80036;stroke-width:1.0;" width="10" x="327.5" y="149.1094"/><rect fill="#FFFFFF" filter="url(#f1gkqabiedf6sm)" height="29.3105" style="stroke:#A80036;stroke-width:1.0;" width="10" x="457.5" y="207.7305"/><polygon fill="#A80036" points="135.5,115.7988,145.5,119.7988,135.5,123.7988,139.5,119.7988" style="stroke:#A80036;stroke-width:1.0;"/><line style="stroke:#A80036;stroke-width:1.0;" x1="23.5" x2="141.5" y1="119.7988" y2="119.7988"/><text fill="#000000" font-family="sans-serif" font-size="13" lengthAdjust="spacing" textLength="105" x="30.5" y="115.0566">Click Task's title</text><polygon fill="#A80036" points="315.5,145.1094,325.5,149.1094,315.5,153.1094,319.5,149.1094" style="stroke:#A80036;stroke-width:1.0;"/><line style="stroke:#A80036;stroke-width:1.0;" x1="157.5" x2="321.5" y1="149.1094" y2="149.1094"/><text fill="#000000" font-family="sans-serif" font-size="13" lengthAdjust="spacing" textLength="151" x="164.5" y="144.3672">open TaskUpdate's view</text><polygon fill="#A80036" points="315.5,174.4199,325.5,178.4199,315.5,182.4199,319.5,178.4199" style="stroke:#A80036;stroke-width:1.0;"/><line style="stroke:#A80036;stroke-width:1.0;" x1="23.5" x2="321.5" y1="178.4199" y2="178.4199"/><text fill="#000000" font-family="sans-serif" font-size="13" lengthAdjust="spacing" textLength="77" x="30.5" y="173.6777">rename task</text><polygon fill="#A80036" points="445.5,203.7305,455.5,207.7305,445.5,211.7305,449.5,207.7305" style="stroke:#A80036;stroke-width:1.0;"/><line style="stroke:#A80036;stroke-width:1.0;" x1="337.5" x2="451.5" y1="207.7305" y2="207.7305"/><text fill="#000000" font-family="sans-serif" font-size="13" lengthAdjust="spacing" textLength="101" x="344.5" y="202.9883">save the change</text><polygon fill="#A80036" points="168.5,233.041,158.5,237.041,168.5,241.041,164.5,237.041" style="stroke:#A80036;stroke-width:1.0;"/><line style="stroke:#A80036;stroke-width:1.0;stroke-dasharray:2.0,2.0;" x1="162.5" x2="461.5" y1="237.041" y2="237.041"/><text fill="#000000" font-family="sans-serif" font-size="13" lengthAdjust="spacing" textLength="48" x="174.5" y="232.2988">redirect</text><polygon fill="#A80036" points="34.5,262.3516,24.5,266.3516,34.5,270.3516,30.5,266.3516" style="stroke:#A80036;stroke-width:1.0;"/><line style="stroke:#A80036;stroke-width:1.0;stroke-dasharray:2.0,2.0;" x1="28.5" x2="151.5" y1="266.3516" y2="266.3516"/><text fill="#000000" font-family="sans-serif" font-size="13" lengthAdjust="spacing" textLength="45" x="40.5" y="261.6094">display</text><!--MD5=[2f58735c5391a8342511b7212cae3484]
@startuml
Actor User
User -> TaskList : Click Task's title
activate TaskList
TaskList -> TaskUpdate : open TaskUpdate's view
activate TaskUpdate
User -> TaskUpdate : rename task
TaskUpdate -> Database : save the change
activate Database
Database - -> TaskList : redirect
deactivate Database
deactivate TaskUpdate
TaskList - -> User : display
deactivate TaskList
@enduml

PlantUML version 1.2022.0(Tue Jan 11 23:16:42 ICT 2022)
(GPL source distribution)
Java Runtime: OpenJDK Runtime Environment
JVM: OpenJDK 64-Bit Server VM
Default Encoding: UTF-8
Language: en
Country: TH
--></g></svg>