<?xml version="1.0" encoding="UTF-8" standalone="no"?><svg xmlns="http://www.w3.org/2000/svg" xmlns:xlink="http://www.w3.org/1999/xlink" contentScriptType="application/ecmascript" contentStyleType="text/css" height="903px" preserveAspectRatio="none" style="width:702px;height:903px;background:#FFFFFF;" version="1.1" viewBox="0 0 702 903" width="702px" zoomAndPan="magnify"><defs><filter height="300%" id="fddhg1x0h8qd0" width="300%" x="-1" y="-1"><feGaussianBlur result="blurOut" stdDeviation="2.0"/><feColorMatrix in="blurOut" result="blurOut2" type="matrix" values="0 0 0 0 0 0 0 0 0 0 0 0 0 0 0 0 0 0 .4 0"/><feOffset dx="4.0" dy="4.0" in="blurOut2" result="blurOut3"/><feBlend in="SourceGraphic" in2="blurOut3" mode="normal"/></filter></defs><g><rect fill="#FFFFFF" filter="url(#fddhg1x0h8qd0)" height="29.3105" style="stroke:#A80036;stroke-width:1.0;" width="10" x="141.5" y="119.7988"/><rect fill="#FFFFFF" filter="url(#fddhg1x0h8qd0)" height="29.3105" style="stroke:#A80036;stroke-width:1.0;" width="10" x="141.5" y="772.1855"/><rect fill="#FFFFFF" filter="url(#fddhg1x0h8qd0)" height="593.7656" style="stroke:#A80036;stroke-width:1.0;" width="10" x="346.5" y="149.1094"/><rect fill="#FFFFFF" filter="url(#fddhg1x0h8qd0)" height="519.834" style="stroke:#A80036;stroke-width:1.0;" width="10" x="632.5" y="252.3516"/><rect fill="#FFFFFF" filter="url(#fddhg1x0h8qd0)" height="120.1973" style="stroke:#000000;stroke-width:2.0;" width="678" x="10" y="267.3516"/><rect fill="#FFFFFF" height="73.5762" style="stroke:none;stroke-width:1.0;" width="678" x="10" y="313.9727"/><rect fill="#FFFFFF" filter="url(#fddhg1x0h8qd0)" height="120.1973" style="stroke:#000000;stroke-width:2.0;" width="678" x="10" y="430.8594"/><rect fill="#FFFFFF" height="73.5762" style="stroke:none;stroke-width:1.0;" width="678" x="10" y="477.4805"/><rect fill="#FFFFFF" filter="url(#fddhg1x0h8qd0)" height="120.1973" style="stroke:#000000;stroke-width:2.0;" width="678" x="10" y="594.3672"/><rect fill="#FFFFFF" height="73.5762" style="stroke:none;stroke-width:1.0;" width="678" x="10" y="640.9883"/><line style="stroke:#A80036;stroke-width:1.0;stroke-dasharray:5.0,5.0;" x1="38" x2="38" y1="88.4883" y2="819.4961"/><line style="stroke:#A80036;stroke-width:1.0;stroke-dasharray:5.0,5.0;" x1="146.5" x2="146.5" y1="88.4883" y2="819.4961"/><line style="stroke:#A80036;stroke-width:1.0;stroke-dasharray:5.0,5.0;" x1="351" x2="351" y1="88.4883" y2="819.4961"/><line style="stroke:#A80036;stroke-width:1.0;stroke-dasharray:5.0,5.0;" x1="637" x2="637" y1="88.4883" y2="819.4961"/><text fill="#000000" font-family="sans-serif" font-size="14" lengthAdjust="spacing" textLength="31" x="20" y="85.5352">User</text><ellipse cx="38.5" cy="15" fill="#FEFECE" filter="url(#fddhg1x0h8qd0)" rx="8" ry="8" style="stroke:#A80036;stroke-width:2.0;"/><path d="M38.5,23 L38.5,50 M25.5,31 L51.5,31 M38.5,50 L25.5,65 M38.5,50 L51.5,65 " fill="none" filter="url(#fddhg1x0h8qd0)" style="stroke:#A80036;stroke-width:2.0;"/><text fill="#000000" font-family="sans-serif" font-size="14" lengthAdjust="spacing" textLength="31" x="20" y="832.0313">User</text><ellipse cx="38.5" cy="844.9844" fill="#FEFECE" filter="url(#fddhg1x0h8qd0)" rx="8" ry="8" style="stroke:#A80036;stroke-width:2.0;"/><path d="M38.5,852.9844 L38.5,879.9844 M25.5,860.9844 L51.5,860.9844 M38.5,879.9844 L25.5,894.9844 M38.5,879.9844 L51.5,894.9844 " fill="none" filter="url(#fddhg1x0h8qd0)" style="stroke:#A80036;stroke-width:2.0;"/><rect fill="#FEFECE" filter="url(#fddhg1x0h8qd0)" height="30.4883" style="stroke:#A80036;stroke-width:1.5;" width="84" x="102.5" y="53"/><text fill="#000000" font-family="sans-serif" font-size="14" lengthAdjust="spacing" textLength="70" x="109.5" y="73.5352">LoginView</text><rect fill="#FEFECE" filter="url(#fddhg1x0h8qd0)" height="30.4883" style="stroke:#A80036;stroke-width:1.5;" width="84" x="102.5" y="818.4961"/><text fill="#000000" font-family="sans-serif" font-size="14" lengthAdjust="spacing" textLength="70" x="109.5" y="839.0313">LoginView</text><rect fill="#FEFECE" filter="url(#fddhg1x0h8qd0)" height="30.4883" style="stroke:#A80036;stroke-width:1.5;" width="103" x="298" y="53"/><text fill="#000000" font-family="sans-serif" font-size="14" lengthAdjust="spacing" textLength="89" x="305" y="73.5352">RegisterPage</text><rect fill="#FEFECE" filter="url(#fddhg1x0h8qd0)" height="30.4883" style="stroke:#A80036;stroke-width:1.5;" width="103" x="298" y="818.4961"/><text fill="#000000" font-family="sans-serif" font-size="14" lengthAdjust="spacing" textLength="89" x="305" y="839.0313">RegisterPage</text><rect fill="#FEFECE" filter="url(#fddhg1x0h8qd0)" height="30.4883" style="stroke:#A80036;stroke-width:1.5;" width="77" x="597" y="53"/><text fill="#000000" font-family="sans-serif" font-size="14" lengthAdjust="spacing" textLength="63" x="604" y="73.5352">Database</text><rect fill="#FEFECE" filter="url(#fddhg1x0h8qd0)" height="30.4883" style="stroke:#A80036;stroke-width:1.5;" width="77" x="597" y="818.4961"/><text fill="#000000" font-family="sans-serif" font-size="14" lengthAdjust="spacing" textLength="63" x="604" y="839.0313">Database</text><rect fill="#FFFFFF" filter="url(#fddhg1x0h8qd0)" height="29.3105" style="stroke:#A80036;stroke-width:1.0;" width="10" x="141.5" y="119.7988"/><rect fill="#FFFFFF" filter="url(#fddhg1x0h8qd0)" height="29.3105" style="stroke:#A80036;stroke-width:1.0;" width="10" x="141.5" y="772.1855"/><rect fill="#FFFFFF" filter="url(#fddhg1x0h8qd0)" height="593.7656" style="stroke:#A80036;stroke-width:1.0;" width="10" x="346.5" y="149.1094"/><rect fill="#FFFFFF" filter="url(#fddhg1x0h8qd0)" height="519.834" style="stroke:#A80036;stroke-width:1.0;" width="10" x="632.5" y="252.3516"/><polygon fill="#A80036" points="129.5,115.7988,139.5,119.7988,129.5,123.7988,133.5,119.7988" style="stroke:#A80036;stroke-width:1.0;"/><line style="stroke:#A80036;stroke-width:1.0;" x1="38.5" x2="135.5" y1="119.7988" y2="119.7988"/><text fill="#000000" font-family="sans-serif" font-size="13" lengthAdjust="spacing" textLength="84" x="45.5" y="115.0566">Click register</text><polygon fill="#A80036" points="334.5,145.1094,344.5,149.1094,334.5,153.1094,338.5,149.1094" style="stroke:#A80036;stroke-width:1.0;"/><line style="stroke:#A80036;stroke-width:1.0;" x1="146.5" x2="340.5" y1="149.1094" y2="149.1094"/><text fill="#000000" font-family="sans-serif" font-size="13" lengthAdjust="spacing" textLength="119" x="153.5" y="144.3672">Open register form</text><polygon fill="#A80036" points="49.5,174.4199,39.5,178.4199,49.5,182.4199,45.5,178.4199" style="stroke:#A80036;stroke-width:1.0;"/><line style="stroke:#A80036;stroke-width:1.0;stroke-dasharray:2.0,2.0;" x1="43.5" x2="345.5" y1="178.4199" y2="178.4199"/><text fill="#000000" font-family="sans-serif" font-size="13" lengthAdjust="spacing" textLength="45" x="55.5" y="173.6777">diaplay</text><polygon fill="#A80036" points="334.5,219.041,344.5,223.041,334.5,227.041,338.5,223.041" style="stroke:#A80036;stroke-width:1.0;"/><line style="stroke:#A80036;stroke-width:1.0;" x1="38.5" x2="340.5" y1="223.041" y2="223.041"/><text fill="#000000" font-family="sans-serif" font-size="13" lengthAdjust="spacing" textLength="284" x="45.5" y="202.9883">Enter username, firstname, lastname, e-mail,</text><text fill="#000000" font-family="sans-serif" font-size="13" lengthAdjust="spacing" textLength="236" x="49.5" y="218.2988">password and password confirmation</text><polygon fill="#A80036" points="620.5,248.3516,630.5,252.3516,620.5,256.3516,624.5,252.3516" style="stroke:#A80036;stroke-width:1.0;"/><line style="stroke:#A80036;stroke-width:1.0;" x1="356.5" x2="626.5" y1="252.3516" y2="252.3516"/><text fill="#000000" font-family="sans-serif" font-size="13" lengthAdjust="spacing" textLength="102" x="363.5" y="247.6094">check username</text><path d="M10,267.3516 L72,267.3516 L72,274.3516 L62,284.3516 L10,284.3516 L10,267.3516 " fill="#EEEEEE" style="stroke:#000000;stroke-width:1.0;"/><rect fill="none" height="120.1973" style="stroke:#000000;stroke-width:2.0;" width="678" x="10" y="267.3516"/><text fill="#000000" font-family="sans-serif" font-size="13" font-weight="bold" lengthAdjust="spacing" textLength="17" x="25" y="280.9199">alt</text><text fill="#000000" font-family="sans-serif" font-size="11" font-weight="bold" lengthAdjust="spacing" textLength="141" x="87" y="279.9863">[if username is not exist]</text><polygon fill="#A80036" points="367.5,301.9727,357.5,305.9727,367.5,309.9727,363.5,305.9727" style="stroke:#A80036;stroke-width:1.0;"/><line style="stroke:#A80036;stroke-width:1.0;stroke-dasharray:2.0,2.0;" x1="361.5" x2="631.5" y1="305.9727" y2="305.9727"/><text fill="#000000" font-family="sans-serif" font-size="13" lengthAdjust="spacing" textLength="139" x="373.5" y="301.2305">username is non exist</text><line style="stroke:#000000;stroke-width:1.0;stroke-dasharray:2.0,2.0;" x1="10" x2="688" y1="314.9727" y2="314.9727"/><text fill="#000000" font-family="sans-serif" font-size="11" font-weight="bold" lengthAdjust="spacing" textLength="113" x="15" y="325.6074">[the username exist]</text><polygon fill="#A80036" points="367.5,346.2383,357.5,350.2383,367.5,354.2383,363.5,350.2383" style="stroke:#A80036;stroke-width:1.0;"/><line style="stroke:#A80036;stroke-width:1.0;stroke-dasharray:2.0,2.0;" x1="361.5" x2="631.5" y1="350.2383" y2="350.2383"/><text fill="#000000" font-family="sans-serif" font-size="13" lengthAdjust="spacing" textLength="159" x="373.5" y="345.4961">username is already used</text><polygon fill="#A80036" points="49.5,375.5488,39.5,379.5488,49.5,383.5488,45.5,379.5488" style="stroke:#A80036;stroke-width:1.0;"/><line style="stroke:#A80036;stroke-width:1.0;stroke-dasharray:2.0,2.0;" x1="43.5" x2="345.5" y1="379.5488" y2="379.5488"/><text fill="#000000" font-family="sans-serif" font-size="13" lengthAdjust="spacing" textLength="143" x="55.5" y="374.8066">send warning message</text><polygon fill="#A80036" points="620.5,411.8594,630.5,415.8594,620.5,419.8594,624.5,415.8594" style="stroke:#A80036;stroke-width:1.0;"/><line style="stroke:#A80036;stroke-width:1.0;" x1="356.5" x2="626.5" y1="415.8594" y2="415.8594"/><text fill="#000000" font-family="sans-serif" font-size="13" lengthAdjust="spacing" textLength="101" x="363.5" y="411.1172">check password</text><path d="M10,430.8594 L72,430.8594 L72,437.8594 L62,447.8594 L10,447.8594 L10,430.8594 " fill="#EEEEEE" style="stroke:#000000;stroke-width:1.0;"/><rect fill="none" height="120.1973" style="stroke:#000000;stroke-width:2.0;" width="678" x="10" y="430.8594"/><text fill="#000000" font-family="sans-serif" font-size="13" font-weight="bold" lengthAdjust="spacing" textLength="17" x="25" y="444.4277">alt</text><text fill="#000000" font-family="sans-serif" font-size="11" font-weight="bold" lengthAdjust="spacing" textLength="233" x="87" y="443.4941">[if password not against the requirement]</text><polygon fill="#A80036" points="367.5,465.4805,357.5,469.4805,367.5,473.4805,363.5,469.4805" style="stroke:#A80036;stroke-width:1.0;"/><line style="stroke:#A80036;stroke-width:1.0;stroke-dasharray:2.0,2.0;" x1="361.5" x2="631.5" y1="469.4805" y2="469.4805"/><text fill="#000000" font-family="sans-serif" font-size="13" lengthAdjust="spacing" textLength="109" x="373.5" y="464.7383">password is valid</text><line style="stroke:#000000;stroke-width:1.0;stroke-dasharray:2.0,2.0;" x1="10" x2="688" y1="478.4805" y2="478.4805"/><text fill="#000000" font-family="sans-serif" font-size="11" font-weight="bold" lengthAdjust="spacing" textLength="198" x="15" y="489.1152">[password against the requirement]</text><polygon fill="#A80036" points="367.5,509.7461,357.5,513.7461,367.5,517.7461,363.5,513.7461" style="stroke:#A80036;stroke-width:1.0;"/><line style="stroke:#A80036;stroke-width:1.0;stroke-dasharray:2.0,2.0;" x1="361.5" x2="631.5" y1="513.7461" y2="513.7461"/><text fill="#000000" font-family="sans-serif" font-size="13" lengthAdjust="spacing" textLength="252" x="373.5" y="509.0039">password not following the requirement</text><polygon fill="#A80036" points="49.5,539.0566,39.5,543.0566,49.5,547.0566,45.5,543.0566" style="stroke:#A80036;stroke-width:1.0;"/><line style="stroke:#A80036;stroke-width:1.0;stroke-dasharray:2.0,2.0;" x1="43.5" x2="345.5" y1="543.0566" y2="543.0566"/><text fill="#000000" font-family="sans-serif" font-size="13" lengthAdjust="spacing" textLength="143" x="55.5" y="538.3145">send warning message</text><polygon fill="#A80036" points="620.5,575.3672,630.5,579.3672,620.5,583.3672,624.5,579.3672" style="stroke:#A80036;stroke-width:1.0;"/><line style="stroke:#A80036;stroke-width:1.0;" x1="356.5" x2="626.5" y1="579.3672" y2="579.3672"/><text fill="#000000" font-family="sans-serif" font-size="13" lengthAdjust="spacing" textLength="186" x="363.5" y="574.625">check password confirmation</text><path d="M10,594.3672 L72,594.3672 L72,601.3672 L62,611.3672 L10,611.3672 L10,594.3672 " fill="#EEEEEE" style="stroke:#000000;stroke-width:1.0;"/><rect fill="none" height="120.1973" style="stroke:#000000;stroke-width:2.0;" width="678" x="10" y="594.3672"/><text fill="#000000" font-family="sans-serif" font-size="13" font-weight="bold" lengthAdjust="spacing" textLength="17" x="25" y="607.9355">alt</text><text fill="#000000" font-family="sans-serif" font-size="11" font-weight="bold" lengthAdjust="spacing" textLength="139" x="87" y="607.002">[if password is matched]</text><polygon fill="#A80036" points="367.5,628.9883,357.5,632.9883,367.5,636.9883,363.5,632.9883" style="stroke:#A80036;stroke-width:1.0;"/><line style="stroke:#A80036;stroke-width:1.0;stroke-dasharray:2.0,2.0;" x1="361.5" x2="631.5" y1="632.9883" y2="632.9883"/><text fill="#000000" font-family="sans-serif" font-size="13" lengthAdjust="spacing" textLength="133" x="373.5" y="628.2461">password is matched</text><line style="stroke:#000000;stroke-width:1.0;stroke-dasharray:2.0,2.0;" x1="10" x2="688" y1="641.9883" y2="641.9883"/><text fill="#000000" font-family="sans-serif" font-size="11" font-weight="bold" lengthAdjust="spacing" textLength="147" x="15" y="652.623">[password is mismatched]</text><polygon fill="#A80036" points="367.5,673.2539,357.5,677.2539,367.5,681.2539,363.5,677.2539" style="stroke:#A80036;stroke-width:1.0;"/><line style="stroke:#A80036;stroke-width:1.0;stroke-dasharray:2.0,2.0;" x1="361.5" x2="631.5" y1="677.2539" y2="677.2539"/><text fill="#000000" font-family="sans-serif" font-size="13" lengthAdjust="spacing" textLength="156" x="373.5" y="672.5117">password is mismatched</text><polygon fill="#A80036" points="49.5,702.5645,39.5,706.5645,49.5,710.5645,45.5,706.5645" style="stroke:#A80036;stroke-width:1.0;"/><line style="stroke:#A80036;stroke-width:1.0;stroke-dasharray:2.0,2.0;" x1="43.5" x2="345.5" y1="706.5645" y2="706.5645"/><text fill="#000000" font-family="sans-serif" font-size="13" lengthAdjust="spacing" textLength="143" x="55.5" y="701.8223">send warning message</text><polygon fill="#A80036" points="620.5,738.875,630.5,742.875,620.5,746.875,624.5,742.875" style="stroke:#A80036;stroke-width:1.0;"/><line style="stroke:#A80036;stroke-width:1.0;" x1="351.5" x2="626.5" y1="742.875" y2="742.875"/><text fill="#000000" font-family="sans-serif" font-size="13" lengthAdjust="spacing" textLength="98" x="358.5" y="738.1328">create new user</text><polygon fill="#A80036" points="162.5,768.1855,152.5,772.1855,162.5,776.1855,158.5,772.1855" style="stroke:#A80036;stroke-width:1.0;"/><line style="stroke:#A80036;stroke-width:1.0;stroke-dasharray:2.0,2.0;" x1="156.5" x2="636.5" y1="772.1855" y2="772.1855"/><text fill="#000000" font-family="sans-serif" font-size="13" lengthAdjust="spacing" textLength="48" x="168.5" y="767.4434">redirect</text><polygon fill="#A80036" points="49.5,797.4961,39.5,801.4961,49.5,805.4961,45.5,801.4961" style="stroke:#A80036;stroke-width:1.0;"/><line style="stroke:#A80036;stroke-width:1.0;stroke-dasharray:2.0,2.0;" x1="43.5" x2="145.5" y1="801.4961" y2="801.4961"/><text fill="#000000" font-family="sans-serif" font-size="13" lengthAdjust="spacing" textLength="45" x="55.5" y="796.7539">display</text><!--MD5=[3db638ebbe3a97e434491837dc47ea48]
@startuml
Actor User
User -> LoginView : Click register
activate LoginView
LoginView -> RegisterPage : Open register form
deactivate LoginView
activate RegisterPage
RegisterPage - -> User : diaplay
User -> RegisterPage : Enter username, firstname, lastname, e-mail,\n password and password confirmation
RegisterPage -> Database : check username
activate Database
alt if username is not exist
Database - -> RegisterPage : username is non exist
else the username exist
Database - -> RegisterPage : username is already used
RegisterPage - -> User : send warning message
end
RegisterPage -> Database : check password
alt if password not against the requirement
Database - -> RegisterPage : password is valid
else password against the requirement
Database - -> RegisterPage : password not following the requirement
RegisterPage - -> User : send warning message
end
RegisterPage -> Database : check password confirmation
alt if password is matched
Database - -> RegisterPage : password is matched
else password is mismatched
Database - -> RegisterPage : password is mismatched
RegisterPage - -> User : send warning message
end
RegisterPage -> Database : create new user
deactivate RegisterPage
Database - -> LoginView : redirect
deactivate Database
activate LoginView
LoginView - -> User : display
deactivate LoginView
@enduml

PlantUML version 1.2022.0(Tue Jan 11 23:16:42 ICT 2022)
(GPL source distribution)
Java Runtime: OpenJDK Runtime Environment
JVM: OpenJDK 64-Bit Server VM
Default Encoding: UTF-8
Language: en
Country: TH
--></g></svg>