<?xml version="1.0" encoding="UTF-8" standalone="no"?><svg xmlns="http://www.w3.org/2000/svg" xmlns:xlink="http://www.w3.org/1999/xlink" contentScriptType="application/ecmascript" contentStyleType="text/css" height="323px" preserveAspectRatio="none" style="width:289px;height:323px;background:#FFFFFF;" version="1.1" viewBox="0 0 289 323" width="289px" zoomAndPan="magnify"><defs><filter height="300%" id="fqqs4t7brour1" width="300%" x="-1" y="-1"><feGaussianBlur result="blurOut" stdDeviation="2.0"/><feColorMatrix in="blurOut" result="blurOut2" type="matrix" values="0 0 0 0 0 0 0 0 0 0 0 0 0 0 0 0 0 0 .4 0"/><feOffset dx="4.0" dy="4.0" in="blurOut2" result="blurOut3"/><feBlend in="SourceGraphic" in2="blurOut3" mode="normal"/></filter></defs><g><rect fill="#FFFFFF" filter="url(#fqqs4t7brour1)" height="101.6211" style="stroke:#A80036;stroke-width:1.0;" width="10" x="197.5" y="119.7988"/><rect fill="#FFFFFF" filter="url(#fqqs4t7brour1)" height="28" style="stroke:#A80036;stroke-width:1.0;" width="10" x="202.5" y="157.1094"/><line style="stroke:#A80036;stroke-width:1.0;stroke-dasharray:5.0,5.0;" x1="23" x2="23" y1="88.4883" y2="239.4199"/><line style="stroke:#A80036;stroke-width:1.0;stroke-dasharray:5.0,5.0;" x1="202" x2="202" y1="88.4883" y2="239.4199"/><text fill="#000000" font-family="sans-serif" font-size="14" lengthAdjust="spacing" textLength="31" x="5" y="85.5352">User</text><ellipse cx="23.5" cy="15" fill="#FEFECE" filter="url(#fqqs4t7brour1)" rx="8" ry="8" style="stroke:#A80036;stroke-width:2.0;"/><path d="M23.5,23 L23.5,50 M10.5,31 L36.5,31 M23.5,50 L10.5,65 M23.5,50 L36.5,65 " fill="none" filter="url(#fqqs4t7brour1)" style="stroke:#A80036;stroke-width:2.0;"/><text fill="#000000" font-family="sans-serif" font-size="14" lengthAdjust="spacing" textLength="31" x="5" y="251.9551">User</text><ellipse cx="23.5" cy="264.9082" fill="#FEFECE" filter="url(#fqqs4t7brour1)" rx="8" ry="8" style="stroke:#A80036;stroke-width:2.0;"/><path d="M23.5,272.9082 L23.5,299.9082 M10.5,280.9082 L36.5,280.9082 M23.5,299.9082 L10.5,314.9082 M23.5,299.9082 L36.5,314.9082 " fill="none" filter="url(#fqqs4t7brour1)" style="stroke:#A80036;stroke-width:2.0;"/><rect fill="#FEFECE" filter="url(#fqqs4t7brour1)" height="30.4883" style="stroke:#A80036;stroke-width:1.5;" width="69" x="166" y="53"/><text fill="#000000" font-family="sans-serif" font-size="14" lengthAdjust="spacing" textLength="55" x="173" y="73.5352">TaskList</text><rect fill="#FEFECE" filter="url(#fqqs4t7brour1)" height="30.4883" style="stroke:#A80036;stroke-width:1.5;" width="69" x="166" y="238.4199"/><text fill="#000000" font-family="sans-serif" font-size="14" lengthAdjust="spacing" textLength="55" x="173" y="258.9551">TaskList</text><rect fill="#FFFFFF" filter="url(#fqqs4t7brour1)" height="101.6211" style="stroke:#A80036;stroke-width:1.0;" width="10" x="197.5" y="119.7988"/><rect fill="#FFFFFF" filter="url(#fqqs4t7brour1)" height="28" style="stroke:#A80036;stroke-width:1.0;" width="10" x="202.5" y="157.1094"/><polygon fill="#A80036" points="185.5,115.7988,195.5,119.7988,185.5,123.7988,189.5,119.7988" style="stroke:#A80036;stroke-width:1.0;"/><line style="stroke:#A80036;stroke-width:1.0;" x1="23.5" x2="191.5" y1="119.7988" y2="119.7988"/><text fill="#000000" font-family="sans-serif" font-size="13" lengthAdjust="spacing" textLength="155" x="30.5" y="115.0566">Enter search information</text><line style="stroke:#A80036;stroke-width:1.0;" x1="212.5" x2="254.5" y1="149.1094" y2="149.1094"/><line style="stroke:#A80036;stroke-width:1.0;" x1="254.5" x2="254.5" y1="149.1094" y2="162.1094"/><line style="stroke:#A80036;stroke-width:1.0;" x1="213.5" x2="254.5" y1="162.1094" y2="162.1094"/><polygon fill="#A80036" points="223.5,158.1094,213.5,162.1094,223.5,166.1094,219.5,162.1094" style="stroke:#A80036;stroke-width:1.0;"/><text fill="#000000" font-family="sans-serif" font-size="13" lengthAdjust="spacing" textLength="63" x="219.5" y="144.3672">find tasks</text><polygon fill="#A80036" points="34.5,217.4199,24.5,221.4199,34.5,225.4199,30.5,221.4199" style="stroke:#A80036;stroke-width:1.0;"/><line style="stroke:#A80036;stroke-width:1.0;stroke-dasharray:2.0,2.0;" x1="28.5" x2="201.5" y1="221.4199" y2="221.4199"/><text fill="#000000" font-family="sans-serif" font-size="13" lengthAdjust="spacing" textLength="83" x="40.5" y="216.6777">display tasks</text><!--MD5=[7fd1128d7b66445e0dab61893d424416]
@startuml
Actor User
User -> TaskList : Enter search information
activate TaskList
TaskList -> TaskList: find tasks
activate TaskList
deactivate TaskList
TaskList - -> User: display tasks
deactivate TaskList
@enduml

PlantUML version 1.2022.0(Tue Jan 11 23:16:42 ICT 2022)
(GPL source distribution)
Java Runtime: OpenJDK Runtime Environment
JVM: OpenJDK 64-Bit Server VM
Default Encoding: UTF-8
Language: en
Country: TH
--></g></svg>