<?xml version="1.0" encoding="UTF-8" standalone="no"?><svg xmlns="http://www.w3.org/2000/svg" xmlns:xlink="http://www.w3.org/1999/xlink" contentScriptType="application/ecmascript" contentStyleType="text/css" height="428px" preserveAspectRatio="none" style="width:513px;height:428px;background:#FFFFFF;" version="1.1" viewBox="0 0 513 428" width="513px" zoomAndPan="magnify"><defs><filter height="300%" id="fn290ow4dsamk" width="300%" x="-1" y="-1"><feGaussianBlur result="blurOut" stdDeviation="2.0"/><feColorMatrix in="blurOut" result="blurOut2" type="matrix" values="0 0 0 0 0 0 0 0 0 0 0 0 0 0 0 0 0 0 .4 0"/><feOffset dx="4.0" dy="4.0" in="blurOut2" result="blurOut3"/><feBlend in="SourceGraphic" in2="blurOut3" mode="normal"/></filter></defs><g><rect fill="#FFFFFF" filter="url(#fn290ow4dsamk)" height="206.4844" style="stroke:#A80036;stroke-width:1.0;" width="10" x="147.5" y="119.7988"/><rect fill="#FFFFFF" filter="url(#fn290ow4dsamk)" height="147.8633" style="stroke:#A80036;stroke-width:1.0;" width="10" x="327.5" y="149.1094"/><rect fill="#FFFFFF" filter="url(#fn290ow4dsamk)" height="29.3105" style="stroke:#A80036;stroke-width:1.0;" width="10" x="457.5" y="267.6621"/><line style="stroke:#A80036;stroke-width:1.0;stroke-dasharray:5.0,5.0;" x1="23" x2="23" y1="88.4883" y2="344.2832"/><line style="stroke:#A80036;stroke-width:1.0;stroke-dasharray:5.0,5.0;" x1="152" x2="152" y1="88.4883" y2="344.2832"/><line style="stroke:#A80036;stroke-width:1.0;stroke-dasharray:5.0,5.0;" x1="332" x2="332" y1="88.4883" y2="344.2832"/><line style="stroke:#A80036;stroke-width:1.0;stroke-dasharray:5.0,5.0;" x1="462" x2="462" y1="88.4883" y2="344.2832"/><text fill="#000000" font-family="sans-serif" font-size="14" lengthAdjust="spacing" textLength="31" x="5" y="85.5352">User</text><ellipse cx="23.5" cy="15" fill="#FEFECE" filter="url(#fn290ow4dsamk)" rx="8" ry="8" style="stroke:#A80036;stroke-width:2.0;"/><path d="M23.5,23 L23.5,50 M10.5,31 L36.5,31 M23.5,50 L10.5,65 M23.5,50 L36.5,65 " fill="none" filter="url(#fn290ow4dsamk)" style="stroke:#A80036;stroke-width:2.0;"/><text fill="#000000" font-family="sans-serif" font-size="14" lengthAdjust="spacing" textLength="31" x="5" y="356.8184">User</text><ellipse cx="23.5" cy="369.7715" fill="#FEFECE" filter="url(#fn290ow4dsamk)" rx="8" ry="8" style="stroke:#A80036;stroke-width:2.0;"/><path d="M23.5,377.7715 L23.5,404.7715 M10.5,385.7715 L36.5,385.7715 M23.5,404.7715 L10.5,419.7715 M23.5,404.7715 L36.5,419.7715 " fill="none" filter="url(#fn290ow4dsamk)" style="stroke:#A80036;stroke-width:2.0;"/><rect fill="#FEFECE" filter="url(#fn290ow4dsamk)" height="30.4883" style="stroke:#A80036;stroke-width:1.5;" width="69" x="116" y="53"/><text fill="#000000" font-family="sans-serif" font-size="14" lengthAdjust="spacing" textLength="55" x="123" y="73.5352">TaskList</text><rect fill="#FEFECE" filter="url(#fn290ow4dsamk)" height="30.4883" style="stroke:#A80036;stroke-width:1.5;" width="69" x="116" y="343.2832"/><text fill="#000000" font-family="sans-serif" font-size="14" lengthAdjust="spacing" textLength="55" x="123" y="363.8184">TaskList</text><rect fill="#FEFECE" filter="url(#fn290ow4dsamk)" height="30.4883" style="stroke:#A80036;stroke-width:1.5;" width="95" x="283" y="53"/><text fill="#000000" font-family="sans-serif" font-size="14" lengthAdjust="spacing" textLength="81" x="290" y="73.5352">TaskUpdate</text><rect fill="#FEFECE" filter="url(#fn290ow4dsamk)" height="30.4883" style="stroke:#A80036;stroke-width:1.5;" width="95" x="283" y="343.2832"/><text fill="#000000" font-family="sans-serif" font-size="14" lengthAdjust="spacing" textLength="81" x="290" y="363.8184">TaskUpdate</text><rect fill="#FEFECE" filter="url(#fn290ow4dsamk)" height="30.4883" style="stroke:#A80036;stroke-width:1.5;" width="77" x="422" y="53"/><text fill="#000000" font-family="sans-serif" font-size="14" lengthAdjust="spacing" textLength="63" x="429" y="73.5352">Database</text><rect fill="#FEFECE" filter="url(#fn290ow4dsamk)" height="30.4883" style="stroke:#A80036;stroke-width:1.5;" width="77" x="422" y="343.2832"/><text fill="#000000" font-family="sans-serif" font-size="14" lengthAdjust="spacing" textLength="63" x="429" y="363.8184">Database</text><rect fill="#FFFFFF" filter="url(#fn290ow4dsamk)" height="206.4844" style="stroke:#A80036;stroke-width:1.0;" width="10" x="147.5" y="119.7988"/><rect fill="#FFFFFF" filter="url(#fn290ow4dsamk)" height="147.8633" style="stroke:#A80036;stroke-width:1.0;" width="10" x="327.5" y="149.1094"/><rect fill="#FFFFFF" filter="url(#fn290ow4dsamk)" height="29.3105" style="stroke:#A80036;stroke-width:1.0;" width="10" x="457.5" y="267.6621"/><polygon fill="#A80036" points="135.5,115.7988,145.5,119.7988,135.5,123.7988,139.5,119.7988" style="stroke:#A80036;stroke-width:1.0;"/><line style="stroke:#A80036;stroke-width:1.0;" x1="23.5" x2="141.5" y1="119.7988" y2="119.7988"/><text fill="#000000" font-family="sans-serif" font-size="13" lengthAdjust="spacing" textLength="105" x="30.5" y="115.0566">Click Task's title</text><polygon fill="#A80036" points="315.5,145.1094,325.5,149.1094,315.5,153.1094,319.5,149.1094" style="stroke:#A80036;stroke-width:1.0;"/><line style="stroke:#A80036;stroke-width:1.0;" x1="157.5" x2="321.5" y1="149.1094" y2="149.1094"/><text fill="#000000" font-family="sans-serif" font-size="13" lengthAdjust="spacing" textLength="151" x="164.5" y="144.3672">open TaskUpdate's view</text><polygon fill="#A80036" points="34.5,174.4199,24.5,178.4199,34.5,182.4199,30.5,178.4199" style="stroke:#A80036;stroke-width:1.0;"/><line style="stroke:#A80036;stroke-width:1.0;stroke-dasharray:2.0,2.0;" x1="28.5" x2="326.5" y1="178.4199" y2="178.4199"/><text fill="#000000" font-family="sans-serif" font-size="13" lengthAdjust="spacing" textLength="45" x="40.5" y="173.6777">display</text><polygon fill="#A80036" points="315.5,234.3516,325.5,238.3516,315.5,242.3516,319.5,238.3516" style="stroke:#A80036;stroke-width:1.0;"/><line style="stroke:#A80036;stroke-width:1.0;" x1="23.5" x2="321.5" y1="238.3516" y2="238.3516"/><text fill="#000000" font-family="sans-serif" font-size="13" lengthAdjust="spacing" textLength="101" x="30.5" y="202.9883">edit Task's title,</text><text fill="#000000" font-family="sans-serif" font-size="13" lengthAdjust="spacing" textLength="98" x="30.5" y="218.2988">description and</text><text fill="#000000" font-family="sans-serif" font-size="13" lengthAdjust="spacing" textLength="101" x="30.5" y="233.6094">complete status</text><polygon fill="#A80036" points="445.5,263.6621,455.5,267.6621,445.5,271.6621,449.5,267.6621" style="stroke:#A80036;stroke-width:1.0;"/><line style="stroke:#A80036;stroke-width:1.0;" x1="337.5" x2="451.5" y1="267.6621" y2="267.6621"/><text fill="#000000" font-family="sans-serif" font-size="13" lengthAdjust="spacing" textLength="101" x="344.5" y="262.9199">save the change</text><polygon fill="#A80036" points="168.5,292.9727,158.5,296.9727,168.5,300.9727,164.5,296.9727" style="stroke:#A80036;stroke-width:1.0;"/><line style="stroke:#A80036;stroke-width:1.0;stroke-dasharray:2.0,2.0;" x1="162.5" x2="461.5" y1="296.9727" y2="296.9727"/><text fill="#000000" font-family="sans-serif" font-size="13" lengthAdjust="spacing" textLength="48" x="174.5" y="292.2305">redirect</text><polygon fill="#A80036" points="34.5,322.2832,24.5,326.2832,34.5,330.2832,30.5,326.2832" style="stroke:#A80036;stroke-width:1.0;"/><line style="stroke:#A80036;stroke-width:1.0;stroke-dasharray:2.0,2.0;" x1="28.5" x2="151.5" y1="326.2832" y2="326.2832"/><text fill="#000000" font-family="sans-serif" font-size="13" lengthAdjust="spacing" textLength="45" x="40.5" y="321.541">display</text><!--MD5=[32849a9fb2c8380c807fb1ef7c8f77ac]
@startuml
Actor User
User -> TaskList : Click Task's title
activate TaskList
TaskList -> TaskUpdate : open TaskUpdate's view
activate TaskUpdate
TaskUpdate - -> User : display
User -> TaskUpdate : edit Task's title, \ndescription and \ncomplete status
TaskUpdate -> Database : save the change
activate Database
Database - -> TaskList : redirect
deactivate Database
deactivate TaskUpdate
TaskList - -> User : display
deactivate TaskList
@enduml

PlantUML version 1.2022.0(Tue Jan 11 23:16:42 ICT 2022)
(GPL source distribution)
Java Runtime: OpenJDK Runtime Environment
JVM: OpenJDK 64-Bit Server VM
Default Encoding: UTF-8
Language: en
Country: TH
--></g></svg>