<?xml version="1.0" encoding="UTF-8" standalone="no"?><svg xmlns="http://www.w3.org/2000/svg" xmlns:xlink="http://www.w3.org/1999/xlink" contentScriptType="application/ecmascript" contentStyleType="text/css" height="384px" preserveAspectRatio="none" style="width:513px;height:384px;background:#FFFFFF;" version="1.1" viewBox="0 0 513 384" width="513px" zoomAndPan="magnify"><defs><filter height="300%" id="fowxe4nqxwqxl" width="300%" x="-1" y="-1"><feGaussianBlur result="blurOut" stdDeviation="2.0"/><feColorMatrix in="blurOut" result="blurOut2" type="matrix" values="0 0 0 0 0 0 0 0 0 0 0 0 0 0 0 0 0 0 .4 0"/><feOffset dx="4.0" dy="4.0" in="blurOut2" result="blurOut3"/><feBlend in="SourceGraphic" in2="blurOut3" mode="normal"/></filter></defs><g><rect fill="#FFFFFF" filter="url(#fowxe4nqxwqxl)" height="161.8633" style="stroke:#A80036;stroke-width:1.0;" width="10" x="147.5" y="119.7988"/><rect fill="#FFFFFF" filter="url(#fowxe4nqxwqxl)" height="103.2422" style="stroke:#A80036;stroke-width:1.0;" width="10" x="327.5" y="149.1094"/><rect fill="#FFFFFF" filter="url(#fowxe4nqxwqxl)" height="29.3105" style="stroke:#A80036;stroke-width:1.0;" width="10" x="457.5" y="223.041"/><line style="stroke:#A80036;stroke-width:1.0;stroke-dasharray:5.0,5.0;" x1="23" x2="23" y1="88.4883" y2="299.6621"/><line style="stroke:#A80036;stroke-width:1.0;stroke-dasharray:5.0,5.0;" x1="152" x2="152" y1="88.4883" y2="299.6621"/><line style="stroke:#A80036;stroke-width:1.0;stroke-dasharray:5.0,5.0;" x1="332" x2="332" y1="88.4883" y2="299.6621"/><line style="stroke:#A80036;stroke-width:1.0;stroke-dasharray:5.0,5.0;" x1="462" x2="462" y1="88.4883" y2="299.6621"/><text fill="#000000" font-family="sans-serif" font-size="14" lengthAdjust="spacing" textLength="31" x="5" y="85.5352">User</text><ellipse cx="23.5" cy="15" fill="#FEFECE" filter="url(#fowxe4nqxwqxl)" rx="8" ry="8" style="stroke:#A80036;stroke-width:2.0;"/><path d="M23.5,23 L23.5,50 M10.5,31 L36.5,31 M23.5,50 L10.5,65 M23.5,50 L36.5,65 " fill="none" filter="url(#fowxe4nqxwqxl)" style="stroke:#A80036;stroke-width:2.0;"/><text fill="#000000" font-family="sans-serif" font-size="14" lengthAdjust="spacing" textLength="31" x="5" y="312.1973">User</text><ellipse cx="23.5" cy="325.1504" fill="#FEFECE" filter="url(#fowxe4nqxwqxl)" rx="8" ry="8" style="stroke:#A80036;stroke-width:2.0;"/><path d="M23.5,333.1504 L23.5,360.1504 M10.5,341.1504 L36.5,341.1504 M23.5,360.1504 L10.5,375.1504 M23.5,360.1504 L36.5,375.1504 " fill="none" filter="url(#fowxe4nqxwqxl)" style="stroke:#A80036;stroke-width:2.0;"/><rect fill="#FEFECE" filter="url(#fowxe4nqxwqxl)" height="30.4883" style="stroke:#A80036;stroke-width:1.5;" width="69" x="116" y="53"/><text fill="#000000" font-family="sans-serif" font-size="14" lengthAdjust="spacing" textLength="55" x="123" y="73.5352">TaskList</text><rect fill="#FEFECE" filter="url(#fowxe4nqxwqxl)" height="30.4883" style="stroke:#A80036;stroke-width:1.5;" width="69" x="116" y="298.6621"/><text fill="#000000" font-family="sans-serif" font-size="14" lengthAdjust="spacing" textLength="55" x="123" y="319.1973">TaskList</text><rect fill="#FEFECE" filter="url(#fowxe4nqxwqxl)" height="30.4883" style="stroke:#A80036;stroke-width:1.5;" width="95" x="283" y="53"/><text fill="#000000" font-family="sans-serif" font-size="14" lengthAdjust="spacing" textLength="81" x="290" y="73.5352">TaskUpdate</text><rect fill="#FEFECE" filter="url(#fowxe4nqxwqxl)" height="30.4883" style="stroke:#A80036;stroke-width:1.5;" width="95" x="283" y="298.6621"/><text fill="#000000" font-family="sans-serif" font-size="14" lengthAdjust="spacing" textLength="81" x="290" y="319.1973">TaskUpdate</text><rect fill="#FEFECE" filter="url(#fowxe4nqxwqxl)" height="30.4883" style="stroke:#A80036;stroke-width:1.5;" width="77" x="422" y="53"/><text fill="#000000" font-family="sans-serif" font-size="14" lengthAdjust="spacing" textLength="63" x="429" y="73.5352">Database</text><rect fill="#FEFECE" filter="url(#fowxe4nqxwqxl)" height="30.4883" style="stroke:#A80036;stroke-width:1.5;" width="77" x="422" y="298.6621"/><text fill="#000000" font-family="sans-serif" font-size="14" lengthAdjust="spacing" textLength="63" x="429" y="319.1973">Database</text><rect fill="#FFFFFF" filter="url(#fowxe4nqxwqxl)" height="161.8633" style="stroke:#A80036;stroke-width:1.0;" width="10" x="147.5" y="119.7988"/><rect fill="#FFFFFF" filter="url(#fowxe4nqxwqxl)" height="103.2422" style="stroke:#A80036;stroke-width:1.0;" width="10" x="327.5" y="149.1094"/><rect fill="#FFFFFF" filter="url(#fowxe4nqxwqxl)" height="29.3105" style="stroke:#A80036;stroke-width:1.0;" width="10" x="457.5" y="223.041"/><polygon fill="#A80036" points="135.5,115.7988,145.5,119.7988,135.5,123.7988,139.5,119.7988" style="stroke:#A80036;stroke-width:1.0;"/><line style="stroke:#A80036;stroke-width:1.0;" x1="23.5" x2="141.5" y1="119.7988" y2="119.7988"/><text fill="#000000" font-family="sans-serif" font-size="13" lengthAdjust="spacing" textLength="105" x="30.5" y="115.0566">Click Task's title</text><polygon fill="#A80036" points="315.5,145.1094,325.5,149.1094,315.5,153.1094,319.5,149.1094" style="stroke:#A80036;stroke-width:1.0;"/><line style="stroke:#A80036;stroke-width:1.0;" x1="157.5" x2="321.5" y1="149.1094" y2="149.1094"/><text fill="#000000" font-family="sans-serif" font-size="13" lengthAdjust="spacing" textLength="151" x="164.5" y="144.3672">open TaskUpdate's view</text><polygon fill="#A80036" points="315.5,189.7305,325.5,193.7305,315.5,197.7305,319.5,193.7305" style="stroke:#A80036;stroke-width:1.0;"/><line style="stroke:#A80036;stroke-width:1.0;" x1="23.5" x2="321.5" y1="193.7305" y2="193.7305"/><text fill="#000000" font-family="sans-serif" font-size="13" lengthAdjust="spacing" textLength="105" x="30.5" y="173.6777">update complete</text><text fill="#000000" font-family="sans-serif" font-size="13" lengthAdjust="spacing" textLength="39" x="34.5" y="188.9883">status</text><polygon fill="#A80036" points="445.5,219.041,455.5,223.041,445.5,227.041,449.5,223.041" style="stroke:#A80036;stroke-width:1.0;"/><line style="stroke:#A80036;stroke-width:1.0;" x1="337.5" x2="451.5" y1="223.041" y2="223.041"/><text fill="#000000" font-family="sans-serif" font-size="13" lengthAdjust="spacing" textLength="101" x="344.5" y="218.2988">save the change</text><polygon fill="#A80036" points="168.5,248.3516,158.5,252.3516,168.5,256.3516,164.5,252.3516" style="stroke:#A80036;stroke-width:1.0;"/><line style="stroke:#A80036;stroke-width:1.0;stroke-dasharray:2.0,2.0;" x1="162.5" x2="461.5" y1="252.3516" y2="252.3516"/><text fill="#000000" font-family="sans-serif" font-size="13" lengthAdjust="spacing" textLength="48" x="174.5" y="247.6094">redirect</text><polygon fill="#A80036" points="34.5,277.6621,24.5,281.6621,34.5,285.6621,30.5,281.6621" style="stroke:#A80036;stroke-width:1.0;"/><line style="stroke:#A80036;stroke-width:1.0;stroke-dasharray:2.0,2.0;" x1="28.5" x2="151.5" y1="281.6621" y2="281.6621"/><text fill="#000000" font-family="sans-serif" font-size="13" lengthAdjust="spacing" textLength="45" x="40.5" y="276.9199">display</text><!--MD5=[a3d95fc3956e9ce26faaacdcfe20b3b7]
@startuml
Actor User
User -> TaskList : Click Task's title
activate TaskList
TaskList -> TaskUpdate : open TaskUpdate's view
activate TaskUpdate
User -> TaskUpdate : update complete\n status
TaskUpdate -> Database : save the change
activate Database
Database - -> TaskList : redirect
deactivate Database
deactivate TaskUpdate
TaskList - -> User : display
deactivate TaskList
@enduml

PlantUML version 1.2022.0(Tue Jan 11 23:16:42 ICT 2022)
(GPL source distribution)
Java Runtime: OpenJDK Runtime Environment
JVM: OpenJDK 64-Bit Server VM
Default Encoding: UTF-8
Language: en
Country: TH
--></g></svg>