<?xml version="1.0" encoding="UTF-8" standalone="no"?><svg xmlns="http://www.w3.org/2000/svg" xmlns:xlink="http://www.w3.org/1999/xlink" contentScriptType="application/ecmascript" contentStyleType="text/css" height="280px" preserveAspectRatio="none" style="width:427px;height:280px;background:#FFFFFF;" version="1.1" viewBox="0 0 427 280" width="427px" zoomAndPan="magnify"><defs><filter height="300%" id="f1d3h577lqygfo" width="300%" x="-1" y="-1"><feGaussianBlur result="blurOut" stdDeviation="2.0"/><feColorMatrix in="blurOut" result="blurOut2" type="matrix" values="0 0 0 0 0 0 0 0 0 0 0 0 0 0 0 0 0 0 .4 0"/><feOffset dx="4.0" dy="4.0" in="blurOut2" result="blurOut3"/><feBlend in="SourceGraphic" in2="blurOut3" mode="normal"/></filter></defs><g><rect fill="#FFFFFF" filter="url(#f1d3h577lqygfo)" height="58.6211" style="stroke:#A80036;stroke-width:1.0;" width="10" x="256.5" y="119.7988"/><rect fill="#FFFFFF" filter="url(#f1d3h577lqygfo)" height="29.3105" style="stroke:#A80036;stroke-width:1.0;" width="10" x="371.5" y="149.1094"/><line style="stroke:#A80036;stroke-width:1.0;stroke-dasharray:5.0,5.0;" x1="23" x2="23" y1="88.4883" y2="196.4199"/><line style="stroke:#A80036;stroke-width:1.0;stroke-dasharray:5.0,5.0;" x1="261" x2="261" y1="88.4883" y2="196.4199"/><line style="stroke:#A80036;stroke-width:1.0;stroke-dasharray:5.0,5.0;" x1="376" x2="376" y1="88.4883" y2="196.4199"/><text fill="#000000" font-family="sans-serif" font-size="14" lengthAdjust="spacing" textLength="31" x="5" y="85.5352">User</text><ellipse cx="23.5" cy="15" fill="#FEFECE" filter="url(#f1d3h577lqygfo)" rx="8" ry="8" style="stroke:#A80036;stroke-width:2.0;"/><path d="M23.5,23 L23.5,50 M10.5,31 L36.5,31 M23.5,50 L10.5,65 M23.5,50 L36.5,65 " fill="none" filter="url(#f1d3h577lqygfo)" style="stroke:#A80036;stroke-width:2.0;"/><text fill="#000000" font-family="sans-serif" font-size="14" lengthAdjust="spacing" textLength="31" x="5" y="208.9551">User</text><ellipse cx="23.5" cy="221.9082" fill="#FEFECE" filter="url(#f1d3h577lqygfo)" rx="8" ry="8" style="stroke:#A80036;stroke-width:2.0;"/><path d="M23.5,229.9082 L23.5,256.9082 M10.5,237.9082 L36.5,237.9082 M23.5,256.9082 L10.5,271.9082 M23.5,256.9082 L36.5,271.9082 " fill="none" filter="url(#f1d3h577lqygfo)" style="stroke:#A80036;stroke-width:2.0;"/><rect fill="#FEFECE" filter="url(#f1d3h577lqygfo)" height="30.4883" style="stroke:#A80036;stroke-width:1.5;" width="91" x="214" y="53"/><text fill="#000000" font-family="sans-serif" font-size="14" lengthAdjust="spacing" textLength="77" x="221" y="73.5352">TaskCreate</text><rect fill="#FEFECE" filter="url(#f1d3h577lqygfo)" height="30.4883" style="stroke:#A80036;stroke-width:1.5;" width="91" x="214" y="195.4199"/><text fill="#000000" font-family="sans-serif" font-size="14" lengthAdjust="spacing" textLength="77" x="221" y="215.9551">TaskCreate</text><rect fill="#FEFECE" filter="url(#f1d3h577lqygfo)" height="30.4883" style="stroke:#A80036;stroke-width:1.5;" width="77" x="336" y="53"/><text fill="#000000" font-family="sans-serif" font-size="14" lengthAdjust="spacing" textLength="63" x="343" y="73.5352">Database</text><rect fill="#FEFECE" filter="url(#f1d3h577lqygfo)" height="30.4883" style="stroke:#A80036;stroke-width:1.5;" width="77" x="336" y="195.4199"/><text fill="#000000" font-family="sans-serif" font-size="14" lengthAdjust="spacing" textLength="63" x="343" y="215.9551">Database</text><rect fill="#FFFFFF" filter="url(#f1d3h577lqygfo)" height="58.6211" style="stroke:#A80036;stroke-width:1.0;" width="10" x="256.5" y="119.7988"/><rect fill="#FFFFFF" filter="url(#f1d3h577lqygfo)" height="29.3105" style="stroke:#A80036;stroke-width:1.0;" width="10" x="371.5" y="149.1094"/><polygon fill="#A80036" points="244.5,115.7988,254.5,119.7988,244.5,123.7988,248.5,119.7988" style="stroke:#A80036;stroke-width:1.0;"/><line style="stroke:#A80036;stroke-width:1.0;" x1="23.5" x2="250.5" y1="119.7988" y2="119.7988"/><text fill="#000000" font-family="sans-serif" font-size="13" lengthAdjust="spacing" textLength="214" x="30.5" y="115.0566">input Title, description and status</text><polygon fill="#A80036" points="359.5,145.1094,369.5,149.1094,359.5,153.1094,363.5,149.1094" style="stroke:#A80036;stroke-width:1.0;"/><line style="stroke:#A80036;stroke-width:1.0;" x1="266.5" x2="365.5" y1="149.1094" y2="149.1094"/><text fill="#000000" font-family="sans-serif" font-size="13" lengthAdjust="spacing" textLength="86" x="273.5" y="144.3672">add new Task</text><polygon fill="#A80036" points="34.5,174.4199,24.5,178.4199,34.5,182.4199,30.5,178.4199" style="stroke:#A80036;stroke-width:1.0;"/><line style="stroke:#A80036;stroke-width:1.0;stroke-dasharray:2.0,2.0;" x1="28.5" x2="375.5" y1="178.4199" y2="178.4199"/><text fill="#000000" font-family="sans-serif" font-size="13" lengthAdjust="spacing" textLength="55" x="40.5" y="173.6777">Display()</text><!--MD5=[054a35031311e78a4f8fec177e2f112e]
@startuml
Actor User
User -> TaskCreate : input Title, description and status
activate TaskCreate
TaskCreate -> Database : add new Task
activate Database
Database - -> User : Display()
deactivate Database
deactivate TaskCreate
@enduml

PlantUML version 1.2022.0(Tue Jan 11 23:16:42 ICT 2022)
(GPL source distribution)
Java Runtime: OpenJDK Runtime Environment
JVM: OpenJDK 64-Bit Server VM
Default Encoding: UTF-8
Language: en
Country: TH
--></g></svg>